<?xml version="1.0" encoding="utf-8"?>
<svg xmlns="http://www.w3.org/2000/svg">
<symbol id="add-contact" viewBox="0 0 30 30"><path d="M10.313 15c-1.553 0-2.879-.537-3.978-1.611-1.098-1.075-1.647-2.37-1.647-3.889 0-1.518.549-2.814 1.647-3.889C7.435 4.537 8.76 4 10.313 4c1.552 0 2.878.537 3.977 1.611 1.098 1.075 1.648 2.37 1.648 3.889 0 1.518-.55 2.814-1.648 3.889C13.19 14.463 11.865 15 10.313 15zm14.062 1.833h5.156a.46.46 0 0 1 .33.136.437.437 0 0 1 .139.323v2.75a.436.436 0 0 1-.14.322.456.456 0 0 1-.329.136h-5.156v5.042a.436.436 0 0 1-.14.322.456.456 0 0 1-.329.136h-2.812a.456.456 0 0 1-.33-.136.436.436 0 0 1-.139-.322V20.5h-5.156a.456.456 0 0 1-.33-.136.436.436 0 0 1-.139-.322v-2.75c0-.124.046-.232.14-.323a.456.456 0 0 1 .329-.136h5.156v-5.041c0-.124.046-.232.14-.323a.456.456 0 0 1 .329-.136h2.812a.46.46 0 0 1 .33.136.437.437 0 0 1 .139.323v5.041zm-10.781 3.209c0 .496.185.926.556 1.289.371.363.81.544 1.319.544h3.75v3.409c-.664.477-1.5.716-2.505.716H3.91c-1.182 0-2.129-.33-2.842-.988C.356 24.352 0 23.446 0 22.29c0-.506.017-1 .051-1.482a14.28 14.28 0 0 1 .205-1.561c.103-.559.232-1.077.389-1.554a7.28 7.28 0 0 1 .63-1.397 5.05 5.05 0 0 1 .908-1.16c.341-.32.759-.575 1.252-.766a4.488 4.488 0 0 1 1.633-.287c.186 0 .376.081.572.244.771.582 1.526 1.02 2.263 1.31.737.292 1.54.437 2.41.437.869 0 1.672-.145 2.41-.437.736-.29 1.49-.728 2.262-1.31.196-.163.386-.244.572-.244 1.289 0 2.348.459 3.178 1.375H15.47c-.508 0-.948.182-1.319.545-.37.362-.556.792-.556 1.289v2.75z" fill-rule="evenodd"/>
</symbol>
<symbol id="add-image" viewBox="0 0 30 30"><path d="M8.248 7.943h4.947v3.298H8.248v4.943h-3.3V11.24H0V7.943h4.947V3h3.3v4.943zm4.499 7.746l4.924 3.692 2.466-1.228 4.924 2.95v1.97H10.28v-4.92l2.466-2.464zm12.321-.618a1.847 1.847 0 1 1-3.693-.001 1.847 1.847 0 0 1 3.693.001zm2.466-6.765A2.475 2.475 0 0 1 30 10.762v14.774A2.472 2.472 0 0 1 27.534 28H7.823a2.472 2.472 0 0 1-2.466-2.464v-6.495h2.466v6.495h19.711V10.77h-11.51V8.306h11.51z" fill-rule="evenodd"/>
</symbol>
<symbol id="add-row" viewBox="0 0 30 30"><path d="M15 30C6.716 30 0 23.284 0 15 0 6.716 6.716 0 15 0c8.284 0 15 6.716 15 15 0 8.284-6.716 15-15 15zm0-1.364c7.531 0 13.636-6.105 13.636-13.636 0-7.531-6.105-13.636-13.636-13.636C7.469 1.364 1.364 7.469 1.364 15c0 7.531 6.105 13.636 13.636 13.636zm-.682-14.318V7.5h1.364v6.818H22.5v1.364h-6.818V22.5h-1.364v-6.818H7.5v-1.364h6.818z" fill-rule="evenodd"/>
</symbol>
<symbol id="address" viewBox="0 0 30 30"><path d="M20 10c0-1.38-.488-2.559-1.465-3.535C17.56 5.488 16.38 5 15 5c-1.38 0-2.559.488-3.535 1.465C10.488 7.44 10 8.62 10 10c0 1.38.488 2.559 1.465 3.535C12.44 14.512 13.62 15 15 15c1.38 0 2.559-.488 3.535-1.465C19.512 12.56 20 11.38 20 10zm5 0c0 1.42-.215 2.585-.645 3.496l-7.109 15.117a2.37 2.37 0 0 1-.928 1.016c-.41.247-.85.371-1.318.371a2.51 2.51 0 0 1-1.318-.371 2.25 2.25 0 0 1-.909-1.016L5.645 13.496C5.215 12.585 5 11.42 5 10c0-2.76.977-5.117 2.93-7.07C9.883.977 12.24 0 15 0c2.76 0 5.117.977 7.07 2.93C24.023 4.883 25 7.24 25 10z" fill-rule="evenodd"/>
</symbol>
<symbol id="angle-down" viewBox="0 0 30 30"><path d="M25 7l3 3-13 13L2 10l3-3 10 10z" fill-rule="evenodd"/>
</symbol>
<symbol id="angle-left" viewBox="0 0 30 30"><path d="M23 25l-3 3L7 15 20 2l3 3-10 10z" fill-rule="evenodd"/>
</symbol>
<symbol id="angle-right" viewBox="0 0 30 30"><path d="M7 5l3-3 13 13-13 13-3-3 10-10z" fill-rule="evenodd"/>
</symbol>
<symbol id="angle-up" viewBox="0 0 30 30"><path d="M5 23l-3-3L15 7l13 13-3 3-10-10z" fill-rule="evenodd"/>
</symbol>
<symbol id="archive" viewBox="0 0 30 30"><path d="M11.786 22.25a.52.52 0 0 1-.151.385c-.1.1-.229.15-.385.15h-1.071a.521.521 0 0 1-.385-.15.521.521 0 0 1-.151-.385v-9.643c0-.156.05-.284.15-.385.101-.1.23-.15.386-.15h1.071c.156 0 .285.05.385.15.1.1.15.229.15.385v9.643zm4.285 0c0 .156-.05.285-.15.385-.1.1-.229.15-.385.15h-1.072a.521.521 0 0 1-.385-.15.521.521 0 0 1-.15-.385v-9.643c0-.156.05-.284.15-.385.1-.1.229-.15.385-.15h1.072c.156 0 .284.05.385.15.1.1.15.229.15.385v9.643zm4.286 0c0 .156-.05.285-.15.385-.101.1-.23.15-.386.15H18.75a.521.521 0 0 1-.385-.15.521.521 0 0 1-.15-.385v-9.643c0-.156.05-.284.15-.385.1-.1.229-.15.385-.15h1.071a.52.52 0 0 1 .385.15c.1.1.151.229.151.385v9.643zM22.5 8.857h-15v15.87c0 .246.04.472.117.679.078.206.16.357.243.452.084.095.142.142.176.142h13.928c.034 0 .092-.047.176-.142a1.5 1.5 0 0 0 .243-.452c.078-.207.117-.433.117-.678V8.858zM11.25 6.714h7.5l-.804-1.958a.472.472 0 0 0-.284-.185h-5.307a.472.472 0 0 0-.285.185l-.82 1.958zm15.536 1.607a.518.518 0 0 1-.536.536h-1.607v15.87c0 .927-.262 1.728-.787 2.403s-1.155 1.013-1.892 1.013H8.036c-.737 0-1.367-.327-1.892-.98-.525-.652-.787-1.442-.787-2.368V8.857H3.75a.521.521 0 0 1-.385-.15.521.521 0 0 1-.15-.386V7.25c0-.156.05-.285.15-.385.1-.1.229-.15.385-.15h5.173l1.172-2.796c.167-.413.469-.765.904-1.055.435-.29.876-.435 1.322-.435h5.358c.446 0 .887.145 1.322.435.435.29.737.642.904 1.055l1.172 2.795h5.173a.52.52 0 0 1 .385.151c.1.1.15.229.15.385v1.071z" fill-rule="evenodd"/>
</symbol>
<symbol id="area-chart" viewBox="0 0 30 30"><path d="M30 25v2H0V3h1.875v22H30zM24.375 9l3.75 14H3.75v-9l6.563-9 8.437 9 5.625-5z" fill-rule="evenodd"/>
</symbol>
<symbol id="attention" viewBox="0 0 30 30"><path d="M17.14 24.137V20.94a.539.539 0 0 0-.158-.396.513.513 0 0 0-.377-.16h-3.21a.513.513 0 0 0-.377.16.539.539 0 0 0-.158.396v3.197a.54.54 0 0 0 .158.395c.106.107.232.16.377.16h3.21c.145 0 .27-.053.377-.16a.539.539 0 0 0 .158-.395zm-.033-6.293l.301-7.724a.371.371 0 0 0-.167-.32c-.145-.123-.279-.185-.402-.185h-3.678c-.123 0-.257.062-.402.185-.111.079-.167.197-.167.354l.284 7.69c0 .112.056.204.168.277.111.073.245.11.4.11h3.094a.677.677 0 0 0 .393-.11.374.374 0 0 0 .176-.277zm-.234-15.717L29.715 25.82c.39.706.38 1.413-.033 2.12-.19.325-.449.583-.778.774-.328.19-.682.286-1.061.286H2.157c-.379 0-.733-.095-1.061-.286a2.108 2.108 0 0 1-.778-.774c-.413-.707-.424-1.414-.033-2.12L13.127 2.127A2.143 2.143 0 0 1 15 1a2.143 2.143 0 0 1 1.873 1.127z" fill-rule="evenodd"/>
</symbol>
<symbol id="automation" viewBox="0 0 30 30"><path d="M7.975 13.028h.651c.013.002.025.006.037.007.149.009.298.014.447.026.317.026.633.064.943.14a.627.627 0 0 1 .472.54c.057.445.115.89.17 1.336.004.041.021.058.057.071.072.027.143.056.211.09.04.019.066.016.1-.011.335-.266.67-.529 1.006-.793.259-.203.517-.215.789-.033a8.3 8.3 0 0 1 1.322 1.126c.4.41.77.847 1.08 1.335.17.266.156.537-.034.79-.261.347-.522.695-.784 1.041-.023.03-.026.053-.01.087.033.073.063.147.089.222.014.042.036.058.078.064.422.054.843.112 1.264.166a.63.63 0 0 1 .572.526c.084.386.123.779.144 1.173.025.448.022.895-.01 1.342a6.99 6.99 0 0 1-.14 1.02.625.625 0 0 1-.534.494c-.436.058-.87.117-1.306.174-.035.005-.052.019-.064.052a2.77 2.77 0 0 1-.092.227c-.017.038-.014.063.012.096.26.343.517.686.775 1.03.2.267.211.53.031.811a8.333 8.333 0 0 1-1.064 1.313c-.41.421-.846.812-1.334 1.137-.266.178-.529.165-.78-.033l-1.02-.8c-.016-.013-.047-.021-.065-.014a3.682 3.682 0 0 0-.256.107.07.07 0 0 0-.034.046l-.173 1.347a.632.632 0 0 1-.477.545c-.372.088-.75.128-1.13.153L8.53 30h-.459c-.046-.003-.092-.008-.138-.01a7.69 7.69 0 0 1-1.339-.155.636.636 0 0 1-.518-.55c-.058-.45-.114-.899-.173-1.347a.08.08 0 0 0-.04-.053c-.076-.036-.155-.065-.23-.1-.036-.017-.06-.014-.091.01-.337.268-.676.534-1.015.8-.251.198-.513.21-.78.032A8.265 8.265 0 0 1 2.424 27.5a8.312 8.312 0 0 1-1.087-1.343.645.645 0 0 1 .032-.776c.26-.347.52-.693.782-1.038.03-.04.034-.07.012-.115a2.055 2.055 0 0 1-.09-.222c-.01-.03-.028-.041-.057-.045-.42-.055-.84-.112-1.26-.166-.335-.044-.528-.224-.597-.563A8.485 8.485 0 0 1 .008 21.7c-.001-.058-.005-.116-.008-.174v-.022l.006-.048c.009-.23.013-.462.027-.693a6.49 6.49 0 0 1 .139-1.03.624.624 0 0 1 .498-.488c.19-.03.38-.053.57-.078.258-.035.515-.07.773-.103.034-.004.05-.018.063-.052.028-.078.059-.156.093-.231.016-.035.013-.057-.01-.087-.261-.345-.52-.692-.781-1.038-.194-.258-.207-.526-.034-.798a8.378 8.378 0 0 1 1.108-1.36c.402-.411.83-.792 1.309-1.109a.609.609 0 0 1 .758.035l1.025.805c.017.013.05.024.068.017a3.38 3.38 0 0 0 .256-.108.069.069 0 0 0 .035-.045c.058-.44.115-.88.17-1.32.039-.31.218-.515.516-.582a6.997 6.997 0 0 1 1.067-.142l.32-.02zm-.721 1.341c-.001.005-.004.01-.004.015-.054.416-.11.833-.16 1.25-.034.279-.172.474-.434.566a7.736 7.736 0 0 0-.87.369.593.593 0 0 1-.668-.071c-.234-.181-.465-.366-.698-.549l-.32-.25a8.847 8.847 0 0 0-1.482 1.518l.036.048c.248.33.497.66.744.991a.619.619 0 0 1 .077.667 9.634 9.634 0 0 0-.377.931.589.589 0 0 1-.496.412c-.41.06-.82.112-1.232.164-.049.007-.063.026-.065.07-.018.307-.043.613-.053.92-.012.368.012.735.052 1.1.004.034.001.067.05.074.392.05.783.107 1.175.153.297.036.497.186.59.48.093.293.213.574.346.85a.634.634 0 0 1-.07.697c-.228.305-.458.609-.687.913l-.091.122c.437.568.93 1.073 1.483 1.517l.054-.04c.321-.253.642-.507.965-.759.197-.154.417-.19.642-.081.303.146.61.277.925.392a.589.589 0 0 1 .393.495c.04.27.072.541.106.811l.066.512c.01.004.017.008.024.008.11.012.22.026.329.035a8.797 8.797 0 0 0 1.7-.03c.033-.005.048-.014.052-.052.05-.41.105-.818.156-1.228.035-.281.177-.474.441-.566.29-.101.572-.22.846-.36a.605.605 0 0 1 .695.072l.723.57.28.219.015-.008a8.777 8.777 0 0 0 1.449-1.476c.026-.033.01-.05-.008-.073-.253-.336-.507-.671-.757-1.009a.607.607 0 0 1-.074-.644c.144-.313.272-.63.387-.956a.583.583 0 0 1 .499-.4c.384-.053.768-.103 1.152-.154.126-.017.126-.017.144-.147a9.026 9.026 0 0 0 .036-1.417c-.01-.184-.029-.367-.044-.55-.003-.029-.006-.053-.047-.058l-1.221-.162a.608.608 0 0 1-.53-.43 8.473 8.473 0 0 0-.364-.9.628.628 0 0 1 .07-.683c.128-.174.26-.346.39-.52.13-.172.26-.345.39-.52a8.853 8.853 0 0 0-1.483-1.518l-.048.036-.968.762c-.195.151-.412.192-.633.087a12.214 12.214 0 0 0-.95-.403.58.58 0 0 1-.38-.487c-.047-.326-.085-.653-.127-.979l-.045-.348c-.45-.088-1.768-.086-2.096.002zM20.659 1.341l-.005.015c-.053.417-.108.833-.16 1.25-.034.279-.172.474-.433.566a7.736 7.736 0 0 0-.871.369.593.593 0 0 1-.667-.07c-.234-.182-.465-.366-.698-.55l-.32-.25a8.847 8.847 0 0 0-1.483 1.518l.036.048c.248.33.498.66.745.992a.619.619 0 0 1 .077.667 9.634 9.634 0 0 0-.378.93.589.589 0 0 1-.495.412c-.41.06-.821.112-1.232.165-.05.006-.063.026-.066.069-.017.307-.043.613-.053.92-.011.368.012.735.053 1.101.004.033 0 .066.05.073.392.05.783.107 1.175.153.297.036.497.187.59.48.093.293.213.574.345.85a.634.634 0 0 1-.07.697c-.228.306-.457.609-.686.913l-.091.122c.437.568.93 1.073 1.483 1.517l.054-.04c.32-.253.642-.507.964-.758.198-.154.418-.19.643-.082.302.146.61.277.925.392a.589.589 0 0 1 .393.495c.04.27.071.541.106.811l.066.513c.01.003.017.007.024.007.11.012.219.026.329.035a8.797 8.797 0 0 0 1.699-.03c.033-.005.048-.014.053-.051.05-.41.105-.819.156-1.228.035-.282.176-.475.44-.567.29-.1.572-.219.846-.359a.605.605 0 0 1 .695.071l.724.57.28.22.015-.009a8.777 8.777 0 0 0 1.448-1.476c.026-.033.01-.05-.007-.073-.253-.336-.508-.67-.757-1.009a.607.607 0 0 1-.074-.643c.143-.313.272-.631.387-.957a.583.583 0 0 1 .499-.399c.384-.054.768-.104 1.152-.155.126-.017.126-.017.143-.147a9.026 9.026 0 0 0 .036-1.417c-.01-.183-.028-.366-.044-.55-.002-.028-.005-.053-.046-.058-.408-.052-.815-.108-1.222-.162a.608.608 0 0 1-.529-.43 8.473 8.473 0 0 0-.365-.9.628.628 0 0 1 .07-.683c.128-.174.26-.346.39-.52l.391-.52a8.853 8.853 0 0 0-1.483-1.518l-.048.037c-.323.254-.645.508-.969.76-.194.153-.411.193-.632.088a12.214 12.214 0 0 0-.95-.402.58.58 0 0 1-.38-.488c-.047-.326-.085-.652-.127-.979l-.045-.347c-.45-.088-1.768-.087-2.096.001zM8.3 18.733c-1.495 0-2.715 1.247-2.716 2.774 0 1.538 1.213 2.782 2.715 2.784 1.497.003 2.718-1.244 2.719-2.775 0-1.536-1.219-2.784-2.718-2.783zm.002 6.832c-2.184 0-3.962-1.819-3.961-4.053.001-2.237 1.777-4.051 3.964-4.05 2.182.001 3.958 1.82 3.956 4.052-.002 2.234-1.777 4.05-3.959 4.05zM21.38 0h.651c.012.002.024.006.036.007.15.009.299.015.448.027.317.025.633.063.943.14a.627.627 0 0 1 .471.539c.058.445.115.89.17 1.336.005.042.022.058.057.071.072.027.144.056.212.09.04.019.065.016.1-.011.334-.266.67-.529 1.006-.793.258-.203.516-.215.789-.033a8.3 8.3 0 0 1 1.321 1.126c.4.411.771.847 1.081 1.335.169.266.155.537-.034.79l-.784 1.042c-.023.03-.026.052-.01.086.033.073.063.147.089.222.014.042.036.059.078.064.421.055.842.112 1.264.166a.63.63 0 0 1 .571.526c.085.386.124.779.145 1.173.024.448.021.895-.011 1.343a6.99 6.99 0 0 1-.14 1.02.625.625 0 0 1-.533.493c-.436.058-.871.117-1.307.174-.034.005-.051.02-.063.053a2.77 2.77 0 0 1-.092.226c-.018.038-.014.063.011.096.26.343.517.686.775 1.03.201.267.212.53.032.811a8.333 8.333 0 0 1-1.065 1.313c-.41.421-.845.812-1.333 1.137-.267.178-.53.166-.78-.032l-1.02-.801c-.017-.013-.047-.021-.065-.014a3.682 3.682 0 0 0-.256.107.07.07 0 0 0-.034.046c-.059.449-.117.898-.173 1.347a.632.632 0 0 1-.477.545c-.372.088-.75.129-1.13.153l-.388.022h-.46c-.045-.003-.091-.008-.137-.01a7.69 7.69 0 0 1-1.34-.154.636.636 0 0 1-.517-.552c-.058-.449-.115-.898-.174-1.346a.08.08 0 0 0-.04-.053c-.075-.036-.154-.065-.23-.1-.035-.017-.059-.014-.09.011l-1.015.799c-.251.198-.514.21-.78.032a8.265 8.265 0 0 1-1.323-1.126 8.312 8.312 0 0 1-1.087-1.343.645.645 0 0 1 .032-.776c.26-.346.52-.693.781-1.038.03-.04.035-.07.012-.115a2.055 2.055 0 0 1-.09-.222c-.01-.03-.027-.041-.057-.045-.42-.055-.839-.112-1.259-.166-.336-.044-.529-.224-.597-.563a8.485 8.485 0 0 1-.152-1.534c0-.058-.005-.116-.007-.174v-.022c.002-.016.005-.032.005-.048.01-.23.013-.462.028-.693.021-.347.063-.691.138-1.03a.624.624 0 0 1 .498-.488c.19-.03.38-.053.571-.078.257-.035.515-.07.772-.102.035-.005.051-.02.063-.053.028-.078.06-.155.094-.23.015-.035.012-.058-.01-.088-.262-.345-.521-.692-.781-1.038-.195-.258-.208-.526-.035-.798a8.378 8.378 0 0 1 1.108-1.36c.403-.411.83-.792 1.31-1.109a.609.609 0 0 1 .758.035l1.024.805c.018.013.05.024.069.017.087-.032.172-.069.256-.107a.069.069 0 0 0 .034-.046c.058-.44.115-.88.17-1.32.04-.31.219-.515.517-.581A6.997 6.997 0 0 1 21.06.02l.32-.02zm.325 5.705c-1.495 0-2.716 1.247-2.716 2.774 0 1.538 1.212 2.782 2.715 2.785 1.496.002 2.718-1.245 2.719-2.776 0-1.535-1.22-2.784-2.718-2.783zm.002 6.832c-2.185 0-3.963-1.819-3.962-4.053.002-2.236 1.778-4.051 3.965-4.05 2.182.001 3.957 1.82 3.956 4.052-.003 2.234-1.777 4.05-3.96 4.051z" fill-rule="evenodd"/>
</symbol>
<symbol id="bar-chart" viewBox="0 0 30 30"><path d="M9.375 15v8h-3.75v-8h3.75zM15 7v16h-3.75V7H15zm15 18v2H0V3h1.875v22H30zm-9.375-14v12h-3.75V11h3.75zm5.625-6v18H22.5V5h3.75z" fill-rule="evenodd"/>
</symbol>
<symbol id="caret" viewBox="0 0 30 30"><path d="M21 12.778a.76.76 0 0 1-.223.547l-5.25 5.444A.708.708 0 0 1 15 19a.708.708 0 0 1-.527-.23l-5.25-5.445A.761.761 0 0 1 9 12.778a.76.76 0 0 1 .223-.547A.708.708 0 0 1 9.75 12h10.5a.71.71 0 0 1 .527.23.761.761 0 0 1 .223.548z" fill-rule="evenodd"/>
</symbol>
<symbol id="certificate" viewBox="0 0 30 30"><path d="M25.287 14.999l2.335 2.284c.338.315.451.71.338 1.184-.135.462-.428.75-.88.863l-3.18.812.897 3.146c.135.463.028.858-.322 1.185-.327.35-.722.456-1.184.321l-3.147-.897-.812 3.181c-.113.451-.4.744-.863.88a2.071 2.071 0 0 1-.321.034c-.35 0-.637-.125-.863-.373l-2.284-2.334-2.284 2.334c-.315.339-.71.451-1.184.339-.462-.124-.75-.418-.863-.88l-.812-3.18-3.146.896c-.463.135-.858.028-1.185-.321-.35-.327-.456-.722-.321-1.185l.897-3.146-3.181-.812c-.451-.113-.744-.4-.88-.863-.112-.474 0-.869.339-1.184l2.334-2.284-2.334-2.284c-.339-.316-.451-.71-.339-1.184.136-.463.429-.75.88-.863l3.18-.812-.896-3.147c-.135-.462-.028-.857.321-1.184.327-.35.722-.457 1.185-.322l3.146.897.812-3.18c.113-.463.4-.75.863-.863.463-.136.857-.029 1.184.321l2.284 2.352 2.284-2.352c.327-.338.722-.445 1.184-.321.463.112.75.4.863.862l.812 3.181 3.147-.897c.462-.135.857-.028 1.184.322.35.327.457.722.322 1.184L23.9 9.856l3.18.812c.452.113.745.4.88.863.113.473 0 .868-.338 1.184l-2.335 2.284z" fill-rule="evenodd"/>
</symbol>
<symbol id="chat" viewBox="0 0 30 30"><path d="M24.904 5.094c-5.46-5.459-14.347-5.459-19.808 0-5.127 5.125-5.47 13.322-.864 18.85-.454.924-1.188 2.003-2.289 2.543-.5.246-.78.78-.695 1.331.083.553.51.98 1.06 1.067a7.16 7.16 0 0 0 1.106.083c1.239 0 3.076-.296 4.945-1.65A13.953 13.953 0 0 0 14.991 29c3.624 0 7.212-1.404 9.913-4.105 5.461-5.46 5.461-14.342 0-19.8zm-1.07 18.73a12.492 12.492 0 0 1-15.16 1.942.756.756 0 0 0-.93.13c-.02.013-.04.023-.06.038-1.696 1.317-3.363 1.544-4.408 1.52 1.264-.875 2.054-2.22 2.512-3.265a.75.75 0 0 0 .037-.487.75.75 0 0 0-.184-.436c-4.368-4.929-4.137-12.44.525-17.102 4.871-4.869 12.797-4.869 17.668 0 4.87 4.87 4.87 12.792 0 17.66zm-2.197-12.67a.757.757 0 0 1-.757.756H9.12a.757.757 0 1 1 0-1.513h11.76c.418 0 .757.339.757.756zm0 3.84a.757.757 0 0 1-.757.757H9.12a.757.757 0 1 1 0-1.513h11.76c.418 0 .757.339.757.756zm-.757 4.598H9.12a.757.757 0 1 1 0-1.513h11.76a.757.757 0 0 1 0 1.513z" fill-rule="evenodd"/>
</symbol>
<symbol id="check" viewBox="0 0 30 30"><path d="M28 9.892c0 .447-.157.827-.47 1.14L15.386 23.177l-2.281 2.281c-.314.313-.694.47-1.141.47-.447 0-.828-.157-1.14-.47l-2.282-2.281-6.072-6.072A1.553 1.553 0 0 1 2 15.964c0-.447.157-.828.47-1.14l2.281-2.282c.313-.313.693-.47 1.14-.47.448 0 .828.157 1.141.47l4.932 4.948L22.968 6.47c.313-.313.693-.47 1.14-.47.448 0 .828.157 1.141.47l2.281 2.28c.313.313.47.693.47 1.14z" fill-rule="evenodd"/>
</symbol>
<symbol id="checkbox-checked" viewBox="0 0 30 30"><path d="M1.992 1A.996.996 0 0 0 1 1.992v26.016c0 .545.448.992.992.992h26.016a.996.996 0 0 0 .992-.992V1.992A.996.996 0 0 0 28.008 1H1.992zm26.016-1C29.102 0 30 .892 30 1.992v26.016A1.996 1.996 0 0 1 28.008 30H1.992A1.996 1.996 0 0 1 0 28.008V1.992C0 .898.892 0 1.992 0h26.016zM11.25 23.625l15-15-3-3-12 12-4.5-4.5-3 3 7.5 7.5z"/>
</symbol>
<symbol id="checkbox-some-checked" viewBox="0 0 30 30"><path d="M1.992 1A.996.996 0 0 0 1 1.992v26.016c0 .545.448.992.992.992h26.016a.996.996 0 0 0 .992-.992V1.992A.996.996 0 0 0 28.008 1H1.992zm26.016-1C29.102 0 30 .892 30 1.992v26.016A1.996 1.996 0 0 1 28.008 30H1.992A1.996 1.996 0 0 1 0 28.008V1.992C0 .898.892 0 1.992 0h26.016zM5.625 13.125v3.75h18.75v-3.75H5.625z"/>
</symbol>
<symbol id="checkbox-unchecked" viewBox="0 0 30 30"><path d="M1.992 1A.996.996 0 0 0 1 1.992v26.016c0 .545.448.992.992.992h26.016a.996.996 0 0 0 .992-.992V1.992A.996.996 0 0 0 28.008 1H1.992zm26.016-1C29.102 0 30 .892 30 1.992v26.016A1.996 1.996 0 0 1 28.008 30H1.992A1.996 1.996 0 0 1 0 28.008V1.992C0 .898.892 0 1.992 0h26.016z"/>
</symbol>
<symbol id="clock" viewBox="0 0 30 30"><path d="M15 0C6.716 0 0 6.716 0 15c0 8.284 6.716 15 15 15 8.284 0 15-6.716 15-15 0-8.284-6.716-15-15-15zm-.6 15.6V4.8h-1.2v12h12v-1.2H14.4zm.6 12.733c-7.364 0-13.333-5.97-13.333-13.333C1.667 7.636 7.636 1.667 15 1.667S28.333 7.636 28.333 15 22.363 28.333 15 28.333z" fill-rule="evenodd"/>
</symbol>
<symbol id="close" viewBox="0 0 30 30"><path d="M27 22.313c0 .539-.189.997-.566 1.374l-2.747 2.747a1.87 1.87 0 0 1-1.374.566 1.87 1.87 0 0 1-1.374-.566L15 20.494l-5.94 5.94A1.87 1.87 0 0 1 7.688 27a1.87 1.87 0 0 1-1.374-.566l-2.747-2.747A1.87 1.87 0 0 1 3 22.313c0-.539.189-.996.566-1.374L9.506 15l-5.94-5.94A1.87 1.87 0 0 1 3 7.688c0-.539.189-.997.566-1.374l2.747-2.747A1.87 1.87 0 0 1 7.687 3c.539 0 .996.189 1.374.566L15 9.506l5.94-5.94A1.87 1.87 0 0 1 22.312 3c.539 0 .997.189 1.374.566l2.747 2.747c.377.377.566.835.566 1.374 0 .539-.189.996-.566 1.374L20.494 15l5.94 5.94c.377.377.566.834.566 1.373z" fill-rule="evenodd"/>
</symbol>
<symbol id="cms" viewBox="0 0 30 30"><path d="M0 10.637h30v18.09c0 .7-.573 1.273-1.274 1.273H1.274C.574 30 0 29.427 0 28.726v-18.09zm19.936 10.892c.7 0 1.274-.574 1.274-1.274 0-.7-.573-1.274-1.274-1.274h-.127a3.158 3.158 0 0 0-.51-1.274l.128-.127c.51-.51.51-1.274 0-1.784a1.231 1.231 0 0 0-1.784 0l-.127.128a7.591 7.591 0 0 0-1.274-.51v-.127c0-.701-.573-1.274-1.274-1.274-.7 0-1.274.573-1.274 1.274v.127a3.158 3.158 0 0 0-1.274.51l-.127-.128a1.231 1.231 0 0 0-1.783 0c-.51.51-.51 1.274 0 1.784l.127.127a7.591 7.591 0 0 0-.51 1.274H10c-.7 0-1.274.573-1.274 1.274 0 .7.573 1.274 1.274 1.274h.127c.064.446.255.891.51 1.274l-.127.127a1.23 1.23 0 0 0 0 1.783c.254.255.573.383.891.383.319 0 .637-.128.892-.383l.127-.127c.383.191.828.382 1.274.51v.127c0 .7.574 1.274 1.274 1.274.7 0 1.274-.573 1.274-1.274v-.127a3.158 3.158 0 0 0 1.274-.51l.127.127c.255.255.574.383.892.383.319 0 .637-.128.892-.383a1.23 1.23 0 0 0 0-1.783l-.128-.127c.191-.383.383-.828.51-1.274h.127zm-4.968-3.758a2.555 2.555 0 0 1 2.548 2.547 2.555 2.555 0 0 1-2.548 2.548 2.555 2.555 0 0 1-2.548-2.548 2.555 2.555 0 0 1 2.548-2.547zM28.662 0c.701 0 1.274.573 1.274 1.274v6.879H0v-6.88C0 .574.573 0 1.274 0h27.388zM7.134 5.287c.637 0 1.274-.51 1.274-1.21 0-.701-.574-1.274-1.274-1.274-.7 0-1.274.573-1.274 1.273 0 .637.573 1.21 1.274 1.21zm7.006 0c.7 0 1.274-.51 1.274-1.21 0-.701-.573-1.274-1.274-1.274-.7 0-1.274.573-1.274 1.273 0 .637.573 1.21 1.274 1.21z" fill-rule="evenodd"/>
</symbol>
<symbol id="contact-name" viewBox="0 0 30 30"><path d="M29 24.941c0 1.563-.484 2.797-1.452 3.702C26.58 29.548 25.295 30 23.69 30H6.31c-1.605 0-2.89-.452-3.858-1.357S1 26.503 1 24.94c0-.69.023-1.364.07-2.021.046-.658.139-1.367.278-2.129.14-.762.315-1.468.527-2.12a9.95 9.95 0 0 1 .855-1.903 6.883 6.883 0 0 1 1.233-1.582 5.202 5.202 0 0 1 1.7-1.045 6.082 6.082 0 0 1 2.218-.391c.119 0 .397.14.835.42.437.28.931.592 1.481.937.55.345 1.267.658 2.148.938a8.73 8.73 0 0 0 2.655.42 8.73 8.73 0 0 0 2.655-.42c.881-.28 1.597-.593 2.148-.938.55-.345 1.044-.657 1.481-.937.438-.28.716-.42.835-.42.809 0 1.548.13 2.218.39a5.21 5.21 0 0 1 1.7 1.046 6.87 6.87 0 0 1 1.233 1.582 9.95 9.95 0 0 1 .855 1.904c.212.65.388 1.357.527 2.119.14.762.232 1.471.278 2.129.047.657.07 1.331.07 2.021zM22.636 7.5c0 2.07-.745 3.838-2.237 5.303C18.908 14.268 17.108 15 15 15s-3.908-.732-5.4-2.197C8.11 11.338 7.365 9.57 7.365 7.5S8.109 3.662 9.6 2.197C11.092.732 12.892 0 15 0s3.908.732 5.4 2.197c1.49 1.465 2.236 3.233 2.236 5.303z" fill-rule="evenodd"/>
</symbol>
<symbol id="contacts" viewBox="0 0 30 30"><path d="M14.967 20.393a6.319 6.319 0 0 0 6.313-6.312v-5.77A6.319 6.319 0 0 0 14.967 2a6.318 6.318 0 0 0-6.312 6.311v5.77a6.318 6.318 0 0 0 6.312 6.312zM10.645 8.612c0-2.578 1.952-4.677 4.354-4.677 2.403 0 4.356 2.099 4.356 4.677v5.162c0 2.577-1.952 4.678-4.356 4.678-2.401 0-4.354-2.1-4.354-4.678V8.612zm-8.71 18.55c.141-1.428.96-5.617 5.676-7.851C9.213 21.685 12 23.142 15 23.142s5.787-1.457 7.389-3.831c4.717 2.233 5.534 6.423 5.676 7.85H1.935zm20.23-9.388c-1.453 2.691-4.2 4.364-7.164 4.364-2.965 0-5.712-1.673-7.165-4.364a.534.534 0 0 0-.7-.238C.084 20.869 0 28.456 0 28.532a.57.57 0 0 0 .16.4c.103.106.24.165.385.165h28.912c.145 0 .284-.06.385-.166a.564.564 0 0 0 .158-.4c-.001-.075-.086-7.662-7.135-10.995a.534.534 0 0 0-.7.238z" fill-rule="evenodd"/>
</symbol>
<symbol id="duplicate" viewBox="0 0 30 30"><path d="M28.393 6.429h-6.964c-.653 0-1.49.284-2.143.67V1.606C19.286.72 18.566 0 17.679 0h-6.965C9.827 0 8.588.519 7.97 1.138l-6.83 6.83C.518 8.589 0 9.828 0 10.715v11.25c0 .888.72 1.607 1.607 1.607h9.107v4.822c0 .887.72 1.607 1.607 1.607h16.072A1.61 1.61 0 0 0 30 28.393V8.036c0-.888-.72-1.607-1.607-1.607zm-9.107 3.565V15H14.28l5.006-5.006zM8.57 3.566V8.57H3.566L8.57 3.566zm3.282 10.831c-.62.62-1.139 1.859-1.139 2.746v4.286h-8.57V10.714h6.964c.887 0 1.607-.72 1.607-1.607V2.143h6.429v6.964l-5.29 5.29zm16.004 13.46h-15V17.143h6.964c.888 0 1.608-.72 1.608-1.607V8.57h6.428v19.286z" fill-rule="evenodd"/>
</symbol>
<symbol id="edit" viewBox="0 0 30 30"><path d="M8.75 24.972l1.442-1.441-3.723-3.723-1.441 1.442v1.695h2.027v2.027H8.75zm8.286-14.7c0-.233-.117-.35-.349-.35a.367.367 0 0 0-.27.112L7.833 18.62a.367.367 0 0 0-.111.27c0 .231.116.348.348.348a.367.367 0 0 0 .27-.111l8.586-8.586a.367.367 0 0 0 .11-.27zM16.18 7.23l6.59 6.59L9.59 27H3v-6.59L16.18 7.23zM27 8.75a1.94 1.94 0 0 1-.586 1.426l-2.63 2.63-6.59-6.59 2.63-2.614c.38-.401.855-.602 1.426-.602.56 0 1.04.2 1.441.602l3.723 3.707c.39.412.586.892.586 1.441z" fill-rule="evenodd"/>
</symbol>
<symbol id="email" viewBox="0 0 30 30"><path d="M27.857 23.5v-12a9.555 9.555 0 0 1-1.155 1.031c-2.991 2.146-5.368 3.906-7.132 5.281-.569.448-1.032.797-1.39 1.047-.356.25-.839.503-1.447.758-.609.255-1.18.383-1.716.383h-.034c-.535 0-1.107-.128-1.716-.383-.608-.255-1.09-.508-1.448-.758-.357-.25-.82-.599-1.39-1.047-1.763-1.375-4.14-3.135-7.131-5.28A9.555 9.555 0 0 1 2.143 11.5v12c0 .135.053.253.159.352a.534.534 0 0 0 .377.148H27.32c.146 0 .271-.05.377-.148a.465.465 0 0 0 .16-.352zm0-16.422v-.382c0-.048-.003-.115-.008-.204a.405.405 0 0 0-.05-.195 9.053 9.053 0 0 1-.093-.14.303.303 0 0 0-.15-.118A.645.645 0 0 0 27.32 6H2.68a.536.536 0 0 0-.377.148.465.465 0 0 0-.16.352c0 1.75.821 3.23 2.462 4.438a2254.37 2254.37 0 0 1 6.713 4.953l.586.46c.324.256.58.451.77.587.19.135.438.299.745.492.307.192.589.336.845.43.257.093.497.14.72.14h.034c.223 0 .463-.047.72-.14.256-.094.538-.238.845-.43.307-.193.555-.357.745-.492.19-.136.446-.331.77-.586l.586-.461c2.321-1.72 4.56-3.37 6.713-4.954.603-.447 1.164-1.049 1.683-1.804.519-.755.778-1.44.778-2.055zM30 6.5v17c0 .688-.262 1.276-.787 1.766a2.674 2.674 0 0 1-1.892.734H2.68a2.674 2.674 0 0 1-1.892-.734C.262 24.776 0 24.188 0 23.5v-17c0-.688.262-1.276.787-1.766A2.674 2.674 0 0 1 2.679 4H27.32c.737 0 1.368.245 1.892.734.525.49.787 1.078.787 1.766z" fill-rule="evenodd"/>
</symbol>
<symbol id="export" viewBox="0 0 30 30"><path d="M22.538 25.76a1.04 1.04 0 0 0-.32-.76 1.033 1.033 0 0 0-.756-.32c-.292 0-.545.107-.758.32a1.04 1.04 0 0 0-.32.76c0 .293.107.546.32.76.213.213.466.32.758.32.291 0 .544-.107.757-.32a1.04 1.04 0 0 0 .32-.76zm4.308 0a1.04 1.04 0 0 0-.32-.76 1.033 1.033 0 0 0-.757-.32c-.291 0-.544.107-.757.32a1.04 1.04 0 0 0-.32.76c0 .293.107.546.32.76.213.213.466.32.757.32.292 0 .544-.107.757-.32a1.04 1.04 0 0 0 .32-.76zM29 21.98v5.4c0 .45-.157.832-.471 1.148a1.556 1.556 0 0 1-1.144.472H2.615c-.448 0-.83-.157-1.144-.473A1.565 1.565 0 0 1 1 27.38v-5.4c0-.45.157-.832.471-1.148a1.556 1.556 0 0 1 1.144-.472H9.8a3.33 3.33 0 0 0 1.187 1.553 3.08 3.08 0 0 0 1.86.607h4.307a3.08 3.08 0 0 0 1.86-.607A3.33 3.33 0 0 0 20.2 20.36h7.185c.448 0 .83.157 1.144.473.314.315.471.697.471 1.147zm-5.469-10.935c-.19.45-.521.675-.993.675h-4.307v7.56c0 .293-.107.546-.32.76-.213.213-.465.32-.757.32h-4.308c-.292 0-.544-.107-.757-.32a1.04 1.04 0 0 1-.32-.76v-7.56H7.462c-.472 0-.803-.225-.993-.675-.191-.439-.112-.827.235-1.164l7.539-7.56A.998.998 0 0 1 15 2a1 1 0 0 1 .757.32l7.539 7.56c.347.338.426.726.235 1.165z" fill-rule="evenodd"/>
</symbol>
<symbol id="flag" viewBox="0 0 30 30"><path d="M27.042 17.925V7.9c-1.834.988-3.494 1.481-4.98 1.481-.89 0-1.677-.173-2.36-.52a23.52 23.52 0 0 0-2.996-1.246 9.253 9.253 0 0 0-2.897-.447c-1.877 0-4.063.689-6.559 2.067v9.75c2.658-1.227 5.008-1.84 7.048-1.84.596 0 1.158.04 1.684.122a8.081 8.081 0 0 1 1.595.423c.537.2.955.37 1.253.505.299.135.746.35 1.343.643l.456.227c.477.24 1.025.359 1.644.359 1.302 0 2.891-.5 4.769-1.498zM5.167 5.083c0 .38-.095.727-.285 1.042a2.13 2.13 0 0 1-.757.749v20.605a.507.507 0 0 1-.146.375.507.507 0 0 1-.375.146H2.562a.507.507 0 0 1-.374-.146.507.507 0 0 1-.146-.375V6.874a2.129 2.129 0 0 1-.757-.749A1.978 1.978 0 0 1 1 5.083c0-.575.203-1.066.61-1.473.407-.407.898-.61 1.473-.61.575 0 1.066.203 1.473.61.407.407.61.898.61 1.473zm23.958 1.042v12.419c0 .423-.19.732-.57.927-.108.055-.2.103-.276.147-2.366 1.259-4.368 1.888-6.006 1.888-.955 0-1.812-.19-2.572-.57l-.456-.228a27.137 27.137 0 0 0-1.61-.78c-.38-.164-.874-.321-1.482-.473a7.621 7.621 0 0 0-1.855-.228c-1.107 0-2.385.239-3.833.716-1.45.478-2.689 1.031-3.72 1.66a1.024 1.024 0 0 1-.537.147 1.15 1.15 0 0 1-.52-.13.997.997 0 0 1-.521-.912V8.632c0-.38.168-.679.504-.896.38-.228.806-.458 1.278-.691.472-.234 1.09-.516 1.855-.847.765-.33 1.593-.6 2.482-.805.89-.207 1.731-.31 2.523-.31 1.216 0 2.35.169 3.402.505 1.052.336 2.186.803 3.402 1.4.412.206.895.309 1.448.309 1.324 0 3.006-.608 5.046-1.823.238-.13.407-.222.504-.277.337-.173.673-.162 1.01.033.336.217.504.515.504.895z" fill-rule="evenodd"/>
</symbol>
<symbol id="form-email" viewBox="0 0 30 30"><path d="M21.883 22.782c0 .465-.203.776-.505.776H9.049c-.302 0-.505-.31-.505-.776s.203-.776.505-.776h12.329c.302 0 .505.31.505.776zm0-4.545c0 .466-.203.776-.505.776H9.049c-.302 0-.505-.31-.505-.776 0-.465.203-.776.505-.776h12.329c.302 0 .505.31.505.776zm.005-5.049c0 .466-.202.776-.505.776H9.049c-.302 0-.505-.31-.505-.776 0-.465.203-.776.505-.776h12.334c.303 0 .505.31.505.776zm-8.085-4.544c0-.466.203-.776.507-.776h7.068c.302 0 .505.31.505.776s-.203.776-.505.776H14.31c-.304 0-.507-.31-.507-.776zM24.87 27.292c0 .488-.856.976-1.427.976H6.669a.968.968 0 0 1-.952-.976V8.543h4.758c1.046 0 1.903-.877 1.903-1.95V1.837h11.54c.524 0 .952.438.952.975v24.48zM11.07 2.105V6.06c0 .555-.456 1.01-1.011 1.01H6.103l4.967-4.964zM24.357 0H12.028c-.555 0-1.11.404-1.463.758L4.707 6.614C4.253 7.12 4 7.624 4 8.08v19.902C4 29.09 4.91 30 6.02 30h17.882c1.01 0 2.525-.807 2.474-2.02V2.02c0-1.11-.909-2.02-2.019-2.02z" fill-rule="evenodd"/>
</symbol>
<symbol id="group" viewBox="0 0 30 30"><path d="M9.266 15c-1.688.052-3.068.719-4.141 2H3.031c-.854 0-1.573-.21-2.156-.633C.292 15.945 0 15.328 0 14.516 0 10.839.646 9 1.938 9c.062 0 .289.11.68.328.39.219.898.44 1.523.664A5.484 5.484 0 0 0 6 10.328c.698 0 1.39-.12 2.078-.36A7.79 7.79 0 0 0 8 11c0 1.448.422 2.781 1.266 4zM26 24.953c0 1.25-.38 2.237-1.14 2.961-.761.724-1.771 1.086-3.032 1.086H8.172c-1.26 0-2.271-.362-3.031-1.086C4.38 27.19 4 26.204 4 24.954c0-.553.018-1.092.055-1.618.036-.526.11-1.094.218-1.703.11-.61.248-1.175.415-1.695a7.98 7.98 0 0 1 .671-1.524c.282-.495.605-.917.97-1.266a4.058 4.058 0 0 1 1.335-.835A4.692 4.692 0 0 1 9.406 16c.104 0 .328.112.672.336.344.224.724.474 1.14.75.417.276.975.526 1.673.75a6.867 6.867 0 0 0 2.109.336c.708 0 1.411-.112 2.11-.336.697-.224 1.255-.474 1.671-.75.417-.276.797-.526 1.14-.75.345-.224.569-.336.673-.336a4.68 4.68 0 0 1 1.742.313c.526.208.971.486 1.336.835.364.35.687.771.969 1.266a8.16 8.16 0 0 1 .672 1.523c.166.521.304 1.086.414 1.696a15.9 15.9 0 0 1 .218 1.703c.037.526.055 1.065.055 1.617zM10 5a3.85 3.85 0 0 1-1.172 2.828A3.854 3.854 0 0 1 6 9a3.854 3.854 0 0 1-2.828-1.172A3.854 3.854 0 0 1 2 5a3.85 3.85 0 0 1 1.172-2.828A3.854 3.854 0 0 1 6 1a3.85 3.85 0 0 1 2.828 1.172A3.854 3.854 0 0 1 10 5zm11 6c0 1.656-.586 3.07-1.758 4.242C18.07 16.414 16.656 17 15 17c-1.656 0-3.07-.586-4.242-1.758C9.586 14.07 9 12.656 9 11c0-1.656.586-3.07 1.758-4.242C11.93 5.586 13.344 5 15 5c1.656 0 3.07.586 4.242 1.758C20.414 7.93 21 9.344 21 11zm9 3.516c0 .812-.292 1.43-.875 1.851-.583.422-1.302.633-2.156.633h-2.094c-1.073-1.281-2.453-1.948-4.14-2C21.577 13.781 22 12.448 22 11a7.79 7.79 0 0 0-.078-1.031c.687.24 1.38.36 2.078.36.615 0 1.234-.113 1.86-.337.624-.224 1.132-.445 1.523-.664.39-.219.617-.328.68-.328C29.354 9 30 10.839 30 14.516zM28 5a3.85 3.85 0 0 1-1.172 2.828A3.854 3.854 0 0 1 24 9a3.854 3.854 0 0 1-2.828-1.172A3.854 3.854 0 0 1 20 5a3.85 3.85 0 0 1 1.172-2.828A3.854 3.854 0 0 1 24 1a3.85 3.85 0 0 1 2.828 1.172A3.854 3.854 0 0 1 28 5z" fill-rule="evenodd"/>
</symbol>
<symbol id="info" viewBox="0 0 30 30"><path d="M15 30C6.716 30 0 23.284 0 15 0 6.716 6.716 0 15 0c8.284 0 15 6.716 15 15 0 8.284-6.716 15-15 15zm0-1.364c7.531 0 13.636-6.105 13.636-13.636 0-7.531-6.105-13.636-13.636-13.636C7.469 1.364 1.364 7.469 1.364 15c0 7.531 6.105 13.636 13.636 13.636zm-2.727-17.045h4.09V22.5h1.364v.682h-5.454V22.5h1.363V12.273h-1.363v-.682zm2.386-2.046a1.705 1.705 0 1 1 0-3.409 1.705 1.705 0 0 1 0 3.41z" fill-rule="evenodd"/>
</symbol>
<symbol id="lead-inbox" viewBox="0 0 30 30"><path d="M29.929 17.426L26.177 3.358A1.88 1.88 0 0 0 24.375 2H5.625a1.88 1.88 0 0 0-1.802 1.358L.071 17.426a1.89 1.89 0 0 0-.071.511V24.5a3.75 3.75 0 0 0 3.75 3.75h22.5A3.75 3.75 0 0 0 30 24.5v-6.563c0-.168-.024-.34-.071-.51zM28.125 24.5a1.878 1.878 0 0 1-1.875 1.875H3.75A1.877 1.877 0 0 1 1.875 24.5v-6.563l3.75-14.063h18.748l3.752 14.063V24.5zm-5.754-7.007h-1.558c-.714 0-1.356.396-1.677 1.036l-1.356 2.714h-6.344L10.08 18.53a1.864 1.864 0 0 0-1.677-1.036H4.609L7.35 7.181h14.516l2.741 10.312h-2.236zm-.505-11.25H7.35a.939.939 0 0 0-.907.697l-3.23 11.25a.938.938 0 0 0 .906 1.178h4.283l1.356 2.714a1.878 1.878 0 0 0 1.678 1.036h6.344c.71 0 1.358-.401 1.677-1.036l1.356-2.714h4.283a.938.938 0 0 0 .906-1.18L22.772 6.94a.938.938 0 0 0-.906-.696z" fill-rule="evenodd"/>
</symbol>
<symbol id="line-chart" viewBox="0 0 30 30"><path d="M30 25v2H0V3h1.875v22H30zM28.125 5.5v6.797c0 .219-.095.372-.286.46-.19.09-.363.05-.52-.116l-1.772-1.891-9.273 9.89a.45.45 0 0 1-.337.157.45.45 0 0 1-.336-.156L12.187 17l-6.093 6.5-2.813-3 8.57-9.14a.45.45 0 0 1 .336-.157.45.45 0 0 1 .337.156L15.938 15l6.796-7.25-1.772-1.89c-.156-.167-.193-.352-.11-.555.083-.203.227-.305.432-.305h6.372c.137 0 .25.047.337.14a.504.504 0 0 1 .132.36z" fill-rule="evenodd"/>
</symbol>
<symbol id="lock" viewBox="0 0 30 30"><path d="M10.111 13.727h9.778V9.91c0-1.405-.478-2.605-1.432-3.6-.955-.994-2.107-1.49-3.457-1.49-1.35 0-2.502.496-3.457 1.49-.954.995-1.432 2.195-1.432 3.6v3.818zM26 15.637V27.09c0 .53-.178.981-.535 1.352-.356.371-.79.557-1.298.557H5.833c-.509 0-.942-.186-1.298-.557A1.88 1.88 0 0 1 4 27.091V15.636c0-.53.178-.98.535-1.352.356-.371.79-.557 1.298-.557h.611V9.91c0-2.44.84-4.534 2.521-6.284C10.645 1.875 12.657 1 15 1s4.354.875 6.035 2.625c1.68 1.75 2.52 3.845 2.52 6.284v3.818h.612c.509 0 .942.186 1.298.557.357.371.535.822.535 1.352z" fill-rule="evenodd"/>
</symbol>
<symbol id="more" viewBox="0 0 30 30"><path d="M9.545 12.75v3.5c0 .486-.159.9-.477 1.24-.318.34-.704.51-1.159.51H4.636c-.454 0-.84-.17-1.159-.51A1.749 1.749 0 0 1 3 16.25v-3.5c0-.486.16-.9.477-1.24a1.53 1.53 0 0 1 1.16-.51h3.272c.455 0 .841.17 1.16.51.317.34.476.754.476 1.24zm8.728 0v3.5c0 .486-.16.9-.478 1.24-.318.34-.704.51-1.159.51h-3.272c-.455 0-.841-.17-1.16-.51a1.749 1.749 0 0 1-.477-1.24v-3.5c0-.486.16-.9.478-1.24.318-.34.704-.51 1.159-.51h3.272c.455 0 .841.17 1.16.51.318.34.477.754.477 1.24zm8.727 0v3.5c0 .486-.16.9-.477 1.24a1.53 1.53 0 0 1-1.16.51h-3.272c-.455 0-.841-.17-1.16-.51a1.749 1.749 0 0 1-.476-1.24v-3.5c0-.486.159-.9.477-1.24.318-.34.704-.51 1.159-.51h3.273c.454 0 .84.17 1.159.51.318.34.477.754.477 1.24z" fill-rule="evenodd"/>
</symbol>
<symbol id="oil" viewBox="0 0 30 30"><path d="M15 22.174c0-.49-.13-.958-.39-1.406a11.88 11.88 0 0 1-.303-.459c-.19-.292-.355-.55-.498-.774a9.244 9.244 0 0 1-.489-.897 6.583 6.583 0 0 1-.41-1.03c-.052-.217-.189-.325-.41-.325-.221 0-.358.108-.41.326a6.583 6.583 0 0 1-.41 1.029 9.244 9.244 0 0 1-.489.897l-.498.774c-.188.292-.29.445-.302.459A2.76 2.76 0 0 0 10 22.174c0 .72.244 1.335.732 1.844.489.51 1.078.765 1.768.765s1.28-.255 1.768-.765A2.57 2.57 0 0 0 15 22.174zm10-2.609c0 2.88-.977 5.34-2.93 7.378C20.117 28.98 17.76 30 15 30c-2.76 0-5.117-1.019-7.07-3.057C5.977 24.905 5 22.446 5 19.565c0-1.97.527-3.838 1.582-5.604.078-.123.485-.737 1.22-1.845A102.051 102.051 0 0 0 9.776 9.04c.58-.945 1.228-2.154 1.944-3.628.716-1.474 1.256-2.843 1.62-4.107.118-.407.34-.727.665-.958C14.329.116 14.66 0 15 0c.339 0 .674.115 1.006.346.332.231.55.55.654.958.365 1.264.905 2.633 1.621 4.107.716 1.474 1.364 2.683 1.944 3.628.579.944 1.237 1.97 1.972 3.077a292.282 292.282 0 0 1 1.221 1.845A10.552 10.552 0 0 1 25 19.565z" fill-rule="evenodd"/>
</symbol>
<symbol id="pause" viewBox="0 0 30 30"><path d="M15 0c8.284 0 15 6.716 15 15 0 8.284-6.716 15-15 15-8.284 0-15-6.716-15-15C0 6.716 6.716 0 15 0zm0 28.333c7.364 0 13.333-5.97 13.333-13.333 0-7.364-5.97-13.333-13.333-13.333C7.636 1.667 1.667 7.636 1.667 15S7.636 28.333 15 28.333zM10.8 8h2.402v14H10.8V8zm6 0h2.402v14H16.8V8z" fill-rule="evenodd"/>
</symbol>
<symbol id="phone" viewBox="0 0 30 30"><path d="M29 23.114c0 .358-.066.825-.199 1.402-.132.576-.272 1.03-.417 1.362-.279.663-1.088 1.365-2.427 2.108C24.711 28.662 23.478 29 22.26 29a7.6 7.6 0 0 1-1.045-.07 8.595 8.595 0 0 1-1.143-.248c-.424-.12-.74-.216-.945-.289a78.311 78.311 0 0 1-1.103-.407 42.37 42.37 0 0 0-.975-.358c-1.299-.464-2.459-1.014-3.48-1.65-1.697-1.048-3.45-2.477-5.26-4.286-1.81-1.81-3.238-3.563-4.285-5.26-.637-1.021-1.187-2.181-1.65-3.48-.04-.12-.16-.444-.359-.975a65.96 65.96 0 0 1-.407-1.103c-.073-.206-.17-.52-.289-.945a8.595 8.595 0 0 1-.248-1.143A7.671 7.671 0 0 1 1 7.74c0-1.22.338-2.452 1.014-3.698.743-1.34 1.445-2.148 2.108-2.427.332-.145.786-.285 1.362-.417C6.061 1.066 6.528 1 6.886 1c.186 0 .325.02.418.06.239.08.59.583 1.054 1.511.146.252.345.61.597 1.074.251.464.483.885.696 1.263.212.378.417.732.616 1.064.04.053.156.218.348.497.192.278.335.513.428.706.092.192.139.38.139.566 0 .266-.19.597-.567.995A9.694 9.694 0 0 1 9.382 9.83c-.444.331-.855.682-1.233 1.054-.378.37-.567.676-.567.914 0 .12.034.269.1.448s.122.315.169.407c.046.093.14.252.278.478.14.225.216.351.229.378 1.008 1.816 2.16 3.374 3.46 4.673 1.3 1.3 2.857 2.452 4.673 3.46.027.013.153.09.378.229.226.139.385.232.478.278.092.047.228.103.407.17.18.065.328.099.448.099.238 0 .543-.19.914-.567.372-.378.723-.789 1.054-1.233a9.694 9.694 0 0 1 1.094-1.233c.398-.378.73-.567.995-.567.185 0 .374.047.566.14.193.092.428.235.706.427.279.192.444.308.497.348.332.199.686.404 1.064.616.378.213.8.445 1.263.696.464.252.822.451 1.074.597.928.464 1.432.815 1.511 1.054.04.093.06.232.06.418z" fill-rule="evenodd"/>
</symbol>
<symbol id="play-none" viewBox="0 0 30 30"><path d="M15 28.333c-7.364 0-13.333-5.97-13.333-13.333 0-2.282.575-4.428 1.585-6.306l.167.12 7.988 5.706v5.381c0 1.1 1.234 1.745 2.137 1.12l3.28-2.27.257-.179 7.338 5.241.344.246c-2.435 2.623-5.902 4.274-9.763 4.274m0-26.667c7.364 0 13.333 5.97 13.333 13.334 0 2.782-.854 5.363-2.311 7.501l-.441-.315-6.753-4.824 1.796-1.243a1.362 1.362 0 0 0 0-2.239l-3.8-2.63-3.28-2.27c-.903-.626-2.137.02-2.137 1.118v1.964L4.581 7.186l-.24-.172C6.773 3.774 10.635 1.666 15 1.666M15 0C6.716 0 0 6.715 0 15c0 8.284 6.716 15 15 15 8.284 0 15-6.716 15-15 0-8.285-6.716-15-15-15" fill-rule="evenodd"/>
</symbol>
<symbol id="play" viewBox="0 0 30 30"><path d="M15 0c8.284 0 15 6.716 15 15 0 8.284-6.716 15-15 15-8.284 0-15-6.716-15-15C0 6.716 6.716 0 15 0zm0 28.333c7.364 0 13.333-5.97 13.333-13.333 0-7.364-5.97-13.333-13.333-13.333C7.636 1.667 1.667 7.636 1.667 15S7.636 28.333 15 28.333zm5.624-14.452a1.361 1.361 0 0 1 0 2.238l-3.8 2.631-3.28 2.271c-.903.625-2.137-.021-2.137-1.12v-9.803c0-1.098 1.234-1.744 2.137-1.119l3.28 2.271 3.8 2.63z" fill-rule="evenodd"/>
</symbol>
<symbol id="plus" viewBox="0 0 30 30"><path d="M29 13.09v3.82c0 .53-.186.98-.557 1.351a1.841 1.841 0 0 1-1.352.557h-8.273v8.273c0 .53-.185.981-.557 1.352A1.841 1.841 0 0 1 16.91 29h-3.818c-.53 0-.981-.186-1.352-.557a1.841 1.841 0 0 1-.557-1.352v-8.273H2.909c-.53 0-.981-.185-1.352-.557A1.841 1.841 0 0 1 1 16.91v-3.818c0-.53.186-.981.557-1.352a1.841 1.841 0 0 1 1.352-.557h8.273V2.909c0-.53.185-.981.557-1.352A1.841 1.841 0 0 1 13.09 1h3.818c.53 0 .981.186 1.352.557.372.371.557.822.557 1.352v8.273h8.273c.53 0 .981.185 1.352.557.371.37.557.822.557 1.352z" fill-rule="evenodd"/>
</symbol>
<symbol id="reachlocal-icon" viewBox="0 0 30 30"><path d="M25.793 30H4.209a4.14 4.14 0 0 1-.915-.103.789.789 0 0 1-.099-1.51c4.1-1.5 11.883-5.143 17.93-12.67a.79.79 0 0 1 .875-.25l2.732.95-5.445-8.733L9.279 11.05l2.932 1.071a.789.789 0 0 1 .405 1.155c-.2.324-4.946 7.986-11.474 11.244A.789.789 0 0 1 0 23.8V4.209A4.213 4.213 0 0 1 4.21 0h21.584A4.213 4.213 0 0 1 30 4.209V25.79A4.213 4.213 0 0 1 25.793 30zM7.2 28.42h18.593a2.631 2.631 0 0 0 2.629-2.629V4.21a2.631 2.631 0 0 0-2.63-2.63H4.21a2.631 2.631 0 0 0-2.63 2.63v18.259c4.393-2.647 7.87-7.33 9.155-9.214l-4.119-1.5a.789.789 0 0 1 .018-1.5L19.38 5.968a.789.789 0 0 1 .921.332l6.948 11.158a.79.79 0 0 1-.928 1.185l-4.32-1.5c-4.777 5.762-10.505 9.268-14.8 11.278H7.2z"/>
</symbol>
<symbol id="reachlocal-reverse" viewBox="0 0 250 30"><title>reachlocal-reverse</title><g fill="none" fill-rule="evenodd"><path d="M.577 29.126V1.662h7.964c3.054 0 5.488.659 7.015 1.935 1.692 1.4 2.723 3.747 2.723 6.177 0 2.47-.949 4.735-2.475 6.052-1.073.906-2.064 1.4-3.797 1.73l8.666 11.57H14.07L6.643 18.09h-.702v11.035H.577zm5.364-14.823H7.51c3.383 0 5.24-1.483 5.24-4.2 0-2.718-1.774-4.118-5.158-4.118h-1.65v8.318zM25.04 29.126h15.227v-4.653h-9.862V17.06h9.49v-4.65h-9.49V6.315h9.862V1.662H25.041zm18.729 0l11.925-28.04h4.044l11.554 28.04h-5.736l-2.352-5.806H51.939l-2.476 5.806H43.77zm9.903-10.13h7.84l-3.837-9.881-4.003 9.882zm18.976-3.458c0 7.947 6.437 14.205 14.524 14.205 2.311 0 4.292-.453 6.726-1.606v-6.3c-2.187 2.142-4.043 3.006-6.602 3.006-5.199 0-9.12-3.993-9.12-9.346 0-5.394 3.921-9.553 8.996-9.553 2.559 0 4.498.906 6.726 3.088v-6.3c-2.393-1.193-4.332-1.687-6.726-1.687-8.046 0-14.524 6.464-14.524 14.493zm27.558 13.588h5.364V16.938h11.637v12.188h5.364V1.662h-5.364v10.623H105.57V1.662h-5.364z" fill="#FFF"/><path d="M235.095 29.126h13.82v-4.653h-8.457V1.663h-5.363zm-31.513 0l11.923-28.04h4.043l11.551 28.04h-5.734l-2.352-5.806H211.75l-2.475 5.806h-5.693zm9.901-10.13h7.839l-3.837-9.881-4.002 9.882zm-34.319-3.458c0 7.947 6.436 14.205 14.522 14.205 2.31 0 4.291-.453 6.725-1.606v-6.3c-2.186 2.142-4.043 3.006-6.6 3.006-5.199 0-9.118-3.993-9.118-9.346 0-5.394 3.919-9.553 8.993-9.553 2.558 0 4.497.906 6.725 3.088v-6.3c-2.393-1.193-4.332-1.687-6.725-1.687-8.044 0-14.522 6.464-14.522 14.493zm-33.7-.329c0-7.824 6.601-14.164 14.77-14.164 8.21 0 14.646 6.3 14.646 14.37s-6.477 14.328-14.852 14.328c-8.251 0-14.564-6.3-14.564-14.534zm5.529.082c0 5.312 4.084 9.552 9.2 9.552 5.033 0 9.158-4.24 9.158-9.47 0-5.229-4.125-9.429-9.2-9.429-4.991 0-9.158 4.241-9.158 9.347zM129.67 29.126h13.82v-4.653h-8.457V1.663h-5.364z" fill="#F16724"/></g>
</symbol>
<symbol id="reachlocal" viewBox="0 0 250 30"><title>reachlocal</title><g fill="none" fill-rule="evenodd"><path d="M.577 29.126V1.662h7.964c3.054 0 5.488.659 7.015 1.935 1.692 1.4 2.723 3.747 2.723 6.177 0 2.47-.949 4.735-2.475 6.052-1.073.906-2.064 1.4-3.797 1.73l8.666 11.57H14.07L6.643 18.09h-.702v11.035H.577zm5.364-14.823H7.51c3.383 0 5.24-1.483 5.24-4.2 0-2.718-1.774-4.118-5.158-4.118h-1.65v8.318zM25.04 29.126h15.227v-4.653h-9.862V17.06h9.49v-4.65h-9.49V6.315h9.862V1.662H25.041zm18.729 0l11.925-28.04h4.044l11.554 28.04h-5.736l-2.352-5.806H51.939l-2.476 5.806H43.77zm9.903-10.13h7.84l-3.837-9.881-4.003 9.882zm18.976-3.458c0 7.947 6.437 14.205 14.524 14.205 2.311 0 4.292-.453 6.726-1.606v-6.3c-2.187 2.142-4.043 3.006-6.602 3.006-5.199 0-9.12-3.993-9.12-9.346 0-5.394 3.921-9.553 8.996-9.553 2.559 0 4.498.906 6.726 3.088v-6.3c-2.393-1.193-4.332-1.687-6.726-1.687-8.046 0-14.524 6.464-14.524 14.493zm27.558 13.588h5.364V16.938h11.637v12.188h5.364V1.662h-5.364v10.623H105.57V1.662h-5.364z" fill="#666"/><path d="M235.095 29.126h13.82v-4.653h-8.457V1.663h-5.363zm-31.513 0l11.923-28.04h4.043l11.551 28.04h-5.734l-2.352-5.806H211.75l-2.475 5.806h-5.693zm9.901-10.13h7.839l-3.837-9.881-4.002 9.882zm-34.319-3.458c0 7.947 6.436 14.205 14.522 14.205 2.31 0 4.291-.453 6.725-1.606v-6.3c-2.186 2.142-4.043 3.006-6.6 3.006-5.199 0-9.118-3.993-9.118-9.346 0-5.394 3.919-9.553 8.993-9.553 2.558 0 4.497.906 6.725 3.088v-6.3c-2.393-1.193-4.332-1.687-6.725-1.687-8.044 0-14.522 6.464-14.522 14.493zm-33.7-.329c0-7.824 6.601-14.164 14.77-14.164 8.21 0 14.646 6.3 14.646 14.37s-6.477 14.328-14.852 14.328c-8.251 0-14.564-6.3-14.564-14.534zm5.529.082c0 5.312 4.084 9.552 9.2 9.552 5.033 0 9.158-4.24 9.158-9.47 0-5.229-4.125-9.429-9.2-9.429-4.991 0-9.158 4.241-9.158 9.347zM129.67 29.126h13.82v-4.653h-8.457V1.663h-5.364z" fill="#F16724"/></g>
</symbol>
<symbol id="read" viewBox="0 0 30 30"><path d="M15 3c-1.625 0-3.178.319-4.66.956-1.48.638-2.756 1.49-3.824 2.56-1.07 1.068-1.922 2.343-2.56 3.825A11.664 11.664 0 0 0 3 15c0 1.625.319 3.178.956 4.66.638 1.48 1.49 2.756 2.56 3.824 1.068 1.07 2.343 1.922 3.825 2.56C11.82 26.68 13.375 27 15 27s3.178-.319 4.66-.956c1.48-.638 2.756-1.49 3.824-2.56 1.07-1.068 1.922-2.343 2.56-3.825C26.68 18.18 27 16.625 27 15s-.319-3.178-.956-4.66c-.638-1.48-1.49-2.756-2.56-3.824-1.068-1.07-2.343-1.922-3.825-2.56A11.664 11.664 0 0 0 15 3zm9 12a8.804 8.804 0 0 1-1.207 4.518 8.96 8.96 0 0 1-3.275 3.275A8.804 8.804 0 0 1 15 24a8.804 8.804 0 0 1-4.518-1.207 8.96 8.96 0 0 1-3.275-3.275A8.804 8.804 0 0 1 6 15c0-1.633.402-3.139 1.207-4.518a8.96 8.96 0 0 1 3.275-3.275A8.804 8.804 0 0 1 15 6c1.633 0 3.139.402 4.518 1.207a8.96 8.96 0 0 1 3.275 3.275A8.804 8.804 0 0 1 24 15z" fill-rule="evenodd"/>
</symbol>
<symbol id="reassign" viewBox="0 0 30 30"><path d="M1 10.143V6.57h3.39c2.339 0 4.533.928 6.187 2.616l9.844 10.104a5.157 5.157 0 0 0 3.329 1.528v-3.533L29 22.643 23.75 28v-3.613c-2.191-.098-4.242-.977-5.804-2.574L8.1 11.709a5.162 5.162 0 0 0-3.708-1.566H1zm22.75-3.53V3L29 8.357l-5.25 5.357v-3.533c-1.258.094-2.43.61-3.329 1.531l-1.952 2.002-2.468-2.532 1.938-1.991a8.603 8.603 0 0 1 5.811-2.578z" fill-rule="evenodd"/>
</symbol>
<symbol id="remove-row" viewBox="0 0 30 30"><path d="M15 30C6.716 30 0 23.284 0 15 0 6.716 6.716 0 15 0c8.284 0 15 6.716 15 15 0 8.284-6.716 15-15 15zm0-1.364c7.531 0 13.636-6.105 13.636-13.636 0-7.531-6.105-13.636-13.636-13.636C7.469 1.364 1.364 7.469 1.364 15c0 7.531 6.105 13.636 13.636 13.636zm0-14.6l4.821-4.821.964.964L15.965 15l4.82 4.821-.964.964L15 15.965l-4.821 4.82-.964-.964L14.035 15l-4.82-4.821.964-.964L15 14.035z" fill-rule="evenodd"/>
</symbol>
<symbol id="reply-all" viewBox="0 0 30 30"><path d="M10.714 18.549v1.136c0 .455-.217.774-.653.958a1.196 1.196 0 0 1-.418.082 1.01 1.01 0 0 1-.753-.309L.318 12.101a.984.984 0 0 1-.318-.73c0-.282.106-.525.318-.731L8.89 2.325c.323-.335.714-.411 1.171-.227.436.184.653.503.653.958v1.12L4.068 10.64a.984.984 0 0 0-.318.73c0 .282.106.526.318.731l6.646 6.448zM30 19.166c0 .628-.095 1.35-.285 2.168a20.78 20.78 0 0 1-.644 2.24 30.63 30.63 0 0 1-.804 2.03 28.327 28.327 0 0 1-.678 1.47l-.335.65c-.089.184-.245.276-.468.276a.523.523 0 0 1-.151-.016c-.279-.087-.407-.27-.385-.552.48-4.331-.112-7.39-1.775-9.176-.714-.768-1.665-1.367-2.854-1.794-1.189-.428-2.681-.712-4.478-.853v4.076c0 .455-.218.774-.653.958a1.196 1.196 0 0 1-.419.082 1.01 1.01 0 0 1-.753-.309l-8.571-8.315a.984.984 0 0 1-.318-.73c0-.282.106-.525.318-.731l8.571-8.315c.324-.335.714-.411 1.172-.227.435.184.653.503.653.958V7.31c4.587.303 7.93 1.5 10.028 3.589C29.057 12.773 30 15.528 30 19.166z" fill-rule="evenodd"/>
</symbol>
<symbol id="reply" viewBox="0 0 30 30"><path d="M30 19.16c0 1.798-.709 4.241-2.126 7.329a45.858 45.858 0 0 1-.402.877c-.067.141-.14.26-.218.358-.133.184-.29.276-.468.276a.496.496 0 0 1-.394-.163.594.594 0 0 1-.142-.406c0-.097.014-.24.042-.43.028-.19.042-.317.042-.382.056-.737.083-1.403.083-1.999 0-1.094-.097-2.075-.293-2.941-.195-.867-.466-1.617-.811-2.25a5.69 5.69 0 0 0-1.34-1.642 7.887 7.887 0 0 0-1.766-1.13c-.63-.292-1.373-.522-2.227-.69a21.822 21.822 0 0 0-2.578-.35 39.584 39.584 0 0 0-2.938-.097h-3.75v4.16a.985.985 0 0 1-.318.731 1.045 1.045 0 0 1-.753.309c-.29 0-.541-.103-.753-.309l-8.572-8.32A.985.985 0 0 1 0 11.36c0-.282.106-.525.318-.731l8.572-8.32c.212-.206.463-.309.753-.309s.541.103.753.309c.212.206.318.45.318.731V7.2h3.75c7.958 0 12.84 2.183 14.649 6.549.591 1.451.887 3.255.887 5.411z" fill-rule="evenodd"/>
</symbol>
<symbol id="reporting" viewBox="0 0 30 30"><path d="M5.701 15.6H0C.315 23.606 6.908 30 14.994 30 21 30 26.18 26.474 28.58 21.38l-4.94-2.08a9.454 9.454 0 0 1-8.495 5.3 9.452 9.452 0 0 1-9.443-9zm17.018-6.106l4.33-3.427A14.93 14.93 0 0 1 30 15c0 1.831-.328 3.586-.93 5.208l-4.95-2.084c.31-.935.478-1.935.478-2.974a9.406 9.406 0 0 0-1.88-5.656zm-17 4.906H0C.315 6.394 6.908 0 14.994 0c4.495 0 8.529 1.976 11.279 5.106l-4.34 3.468A9.428 9.428 0 0 0 15.144 5.7a9.453 9.453 0 0 0-9.424 8.7z" fill-rule="evenodd"/>
</symbol>
<symbol id="search-filter" viewBox="0 0 30 30"><path d="M30 25.25c0 .339-.124.632-.371.879s-.54.371-.879.371a1.16 1.16 0 0 1-.879-.371l-3.35-3.34A6.687 6.687 0 0 1 20.625 24c-.931 0-1.821-.18-2.67-.542a6.874 6.874 0 0 1-2.198-1.465 6.874 6.874 0 0 1-1.465-2.197 6.755 6.755 0 0 1-.542-2.671c0-.931.18-1.821.542-2.67a6.87 6.87 0 0 1 1.465-2.198 6.874 6.874 0 0 1 2.197-1.465 6.755 6.755 0 0 1 2.671-.542c.931 0 1.821.18 2.67.542a6.87 6.87 0 0 1 2.198 1.465 6.874 6.874 0 0 1 1.465 2.197c.361.85.542 1.74.542 2.671a6.687 6.687 0 0 1-1.21 3.896l3.349 3.35a1.2 1.2 0 0 1 .361.879zm-5-8.125c0-1.204-.428-2.235-1.284-3.09-.856-.857-1.887-1.285-3.091-1.285-1.204 0-2.235.428-3.09 1.284-.857.856-1.285 1.887-1.285 3.091 0 1.204.428 2.235 1.284 3.09.856.857 1.887 1.285 3.091 1.285 1.204 0 2.235-.428 3.09-1.284.857-.856 1.285-1.887 1.285-3.091zM0 4h21.25v2.5H0V4zm0 6.25h12.5v2.5H0v-2.5zm0 6.25h9.421V19H0v-2.5zm0 6.25h12.5v2.5H0v-2.5z" fill-rule="evenodd"/>
</symbol>
<symbol id="search-savings" viewBox="0 0 30 30"><path d="M19.59 13.256c0-1.77-.629-3.283-1.886-4.54-1.258-1.258-2.77-1.887-4.54-1.887s-3.283.63-4.54 1.887c-1.258 1.257-1.886 2.77-1.886 4.54 0 1.769.628 3.282 1.886 4.54 1.257 1.257 2.77 1.886 4.54 1.886s3.282-.629 4.54-1.886c1.257-1.258 1.886-2.771 1.886-4.54zm7.345 11.934c0 .498-.182.928-.546 1.291a1.765 1.765 0 0 1-1.29.545c-.517 0-.947-.181-1.292-.545l-4.92-4.906c-1.711 1.186-3.62 1.78-5.723 1.78a9.923 9.923 0 0 1-3.923-.797 10.097 10.097 0 0 1-3.228-2.152 10.097 10.097 0 0 1-2.151-3.227 9.923 9.923 0 0 1-.797-3.923c0-1.368.266-2.676.797-3.923a10.097 10.097 0 0 1 2.151-3.228c.904-.904 1.98-1.62 3.228-2.152a9.923 9.923 0 0 1 3.923-.796c1.367 0 2.675.266 3.923.796a10.097 10.097 0 0 1 3.228 2.152c.903.904 1.62 1.98 2.151 3.228a9.923 9.923 0 0 1 .796 3.923c0 2.104-.593 4.011-1.778 5.723l4.92 4.92c.354.354.53.784.53 1.291zM15.5 14.666c0-.183-.023-.355-.07-.516a2.015 2.015 0 0 0-.168-.42 1.416 1.416 0 0 0-.284-.35 3.433 3.433 0 0 0-.333-.274 3.219 3.219 0 0 0-.404-.233 7.18 7.18 0 0 0-.842-.366 8.193 8.193 0 0 1-.7-.3 1.876 1.876 0 0 1-.3-.17 2.374 2.374 0 0 1-.21-.18.618.618 0 0 1-.204-.492c0-.25.107-.452.321-.61.214-.157.491-.236.83-.236.15 0 .304.021.459.063a2.355 2.355 0 0 1 .713.319c.098.064.168.112.209.145.04.033.067.055.077.066.047.037.095.05.145.039.054-.004.095-.033.123-.088l.434-.802c.043-.073.034-.143-.026-.209a1.934 1.934 0 0 0-.08-.077 2.83 2.83 0 0 0-.21-.159 2.568 2.568 0 0 0-.34-.206 3.384 3.384 0 0 0-1.058-.31v-.967a.173.173 0 0 0-.049-.126.165.165 0 0 0-.123-.05h-.723a.163.163 0 0 0-.121.052.171.171 0 0 0-.05.124v.989c-.562.11-1.017.355-1.367.736-.35.38-.526.824-.526 1.329a2.165 2.165 0 0 0 .159.794c.044.108.108.214.19.318a1.978 1.978 0 0 0 .52.503 5.5 5.5 0 0 0 .302.195c.084.05.196.106.335.17.14.064.25.113.33.146.08.032.19.078.33.137.192.077.335.136.428.178.093.042.21.101.354.176.143.075.247.144.313.206s.126.14.18.23c.053.092.08.19.08.292 0 .29-.11.513-.33.67a1.28 1.28 0 0 1-.763.236c-.132 0-.264-.014-.397-.044-.464-.095-.898-.324-1.302-.686l-.01-.011a.131.131 0 0 0-.13-.05c-.056.008-.097.03-.122.066l-.552.742c-.054.073-.05.148.01.225.018.022.05.055.094.099.045.044.128.112.25.206a3.6 3.6 0 0 0 .396.263c.143.083.324.164.544.245.22.08.447.137.683.17v.961c0 .048.017.089.051.124a.163.163 0 0 0 .12.052h.724a.16.16 0 0 0 .123-.05.173.173 0 0 0 .049-.126v-.961c.568-.095 1.03-.345 1.385-.75a2.12 2.12 0 0 0 .533-1.447z" fill-rule="evenodd"/>
</symbol>
<symbol id="search" viewBox="0 0 30 30"><path d="M19.59 13.256c0-1.77-.629-3.283-1.886-4.54-1.258-1.258-2.77-1.887-4.54-1.887s-3.283.63-4.54 1.887c-1.258 1.257-1.886 2.77-1.886 4.54 0 1.769.628 3.282 1.886 4.54 1.257 1.257 2.77 1.886 4.54 1.886s3.282-.629 4.54-1.886c1.257-1.258 1.886-2.771 1.886-4.54zm7.345 11.934c0 .498-.182.928-.546 1.291a1.765 1.765 0 0 1-1.29.545c-.517 0-.947-.181-1.292-.545l-4.92-4.906c-1.711 1.186-3.62 1.78-5.723 1.78a9.923 9.923 0 0 1-3.923-.797 10.097 10.097 0 0 1-3.228-2.152 10.097 10.097 0 0 1-2.151-3.227 9.923 9.923 0 0 1-.797-3.923c0-1.368.266-2.676.797-3.923a10.097 10.097 0 0 1 2.151-3.228c.904-.904 1.98-1.62 3.228-2.152a9.923 9.923 0 0 1 3.923-.796c1.367 0 2.675.266 3.923.796a10.097 10.097 0 0 1 3.228 2.152c.903.904 1.62 1.98 2.151 3.228a9.923 9.923 0 0 1 .796 3.923c0 2.104-.593 4.011-1.778 5.723l4.92 4.92c.354.354.53.784.53 1.291z" fill-rule="evenodd"/>
</symbol>
<symbol id="share" viewBox="0 0 30 30"><path d="M16 6v16h-2V6l-4 4-1-1 6-6 6 6-1 1-4-4zm11 22H3V12h7v1.88H4.857L5 26h20V14h-5v-2h7v16z" fill-rule="evenodd"/>
</symbol>
<symbol id="shield" viewBox="0 0 30 30"><path d="M22 16c0 2.266-2 4.313-3.672 5.625A22.493 22.493 0 0 1 15 23.765V6h7v10zm3-12c0-.547-.453-1-1-1H6c-.547 0-1 .453-1 1v12c0 6.578 9.203 10.734 9.594 10.906A.912.912 0 0 0 15 27c.14 0 .281-.031.406-.094C15.796 26.734 25 22.578 25 16V4z" fill-rule="evenodd"/>
</symbol>
<symbol id="sms" viewBox="0 0 30 30"><path d="M24.904 5.094c5.461 5.46 5.461 14.342 0 19.801A14.006 14.006 0 0 1 14.991 29c-2.267 0-4.545-.557-6.632-1.683-1.869 1.355-3.706 1.65-4.945 1.65-.461 0-.84-.04-1.105-.082a1.268 1.268 0 0 1-1.061-1.067 1.265 1.265 0 0 1 .695-1.33c1.1-.54 1.835-1.62 2.29-2.544-4.608-5.528-4.264-13.725.863-18.85 5.461-5.459 14.347-5.459 19.808 0zm-1.07 18.73c4.87-4.868 4.87-12.79 0-17.66-4.871-4.869-12.797-4.869-17.668 0-4.662 4.661-4.893 12.173-.525 17.102a.75.75 0 0 1 .184.436.75.75 0 0 1-.037.487c-.458 1.046-1.248 2.39-2.512 3.265 1.045.024 2.712-.203 4.408-1.52.02-.015.04-.025.06-.037a.756.756 0 0 1 .93-.13 12.492 12.492 0 0 0 15.16-1.942zm-2.16-4.624c0 .17-.032.392-.094.667-.063.274-.128.49-.197.648-.13.315-.511.65-1.141 1.003-.587.321-1.167.482-1.74.482a3.57 3.57 0 0 1-.492-.033 4.006 4.006 0 0 1-.538-.118 7.565 7.565 0 0 1-.444-.138 32.36 32.36 0 0 1-.52-.193 14.216 14.216 0 0 0-.458-.17 8.433 8.433 0 0 1-1.637-.786c-.798-.498-1.623-1.178-2.475-2.038-.851-.861-1.523-1.695-2.016-2.503a8.61 8.61 0 0 1-.776-1.655 20.3 20.3 0 0 0-.169-.464 37.519 37.519 0 0 1-.192-.525 7.775 7.775 0 0 1-.135-.449 4.128 4.128 0 0 1-.117-.544 3.69 3.69 0 0 1-.033-.497c0-.58.159-1.166.477-1.76.35-.636.68-1.02.992-1.153.156-.07.37-.136.64-.199.272-.063.492-.094.66-.094a.52.52 0 0 1 .197.028c.112.038.277.277.496.719.068.12.162.29.28.51.119.221.228.422.328.601.1.18.196.349.29.507.019.025.073.104.164.236.09.132.157.244.2.336a.623.623 0 0 1 .066.27c0 .126-.089.283-.266.472-.178.19-.372.363-.58.52a5.652 5.652 0 0 0-.58.502c-.178.177-.267.322-.267.435 0 .057.015.128.047.213.03.085.057.15.08.194.02.044.065.12.13.227.066.107.101.167.108.18a9.923 9.923 0 0 0 1.628 2.223 9.829 9.829 0 0 0 2.198 1.646c.013.006.072.042.178.109.106.066.18.11.225.132.043.022.107.049.191.08a.626.626 0 0 0 .21.048c.113 0 .257-.09.431-.27.175-.18.34-.375.496-.586.156-.212.328-.407.515-.587s.343-.27.467-.27c.088 0 .177.023.267.067.09.044.201.112.332.203.131.092.21.147.234.166a24.436 24.436 0 0 0 1.095.624c.218.12.386.214.505.284.437.22.674.388.711.501.019.044.028.11.028.199z" fill-rule="evenodd"/>
</symbol>
<symbol id="sort" viewBox="0 0 30 30"><path d="M25 18.818c0 .345-.124.643-.371.895l-8.75 8.91A1.19 1.19 0 0 1 15 29a1.19 1.19 0 0 1-.879-.378l-8.75-8.909A1.234 1.234 0 0 1 5 18.818c0-.345.124-.643.371-.895a1.19 1.19 0 0 1 .879-.378h17.5c.339 0 .632.126.879.378s.371.55.371.895zm0-7.636c0 .345-.124.643-.371.895a1.19 1.19 0 0 1-.879.378H6.25a1.19 1.19 0 0 1-.879-.378A1.234 1.234 0 0 1 5 11.182c0-.345.124-.643.371-.895l8.75-8.91A1.19 1.19 0 0 1 15 1c.339 0 .632.126.879.378l8.75 8.909c.247.252.371.55.371.895z" fill-rule="evenodd"/>
</symbol>
<symbol id="square-minus" viewBox="0 0 30 30"><path d="M24.545 14.318v1.364a.664.664 0 0 1-.191.49.664.664 0 0 1-.49.192H6.136a.664.664 0 0 1-.49-.192.664.664 0 0 1-.191-.49v-1.364c0-.199.063-.362.191-.49a.664.664 0 0 1 .49-.192h17.728c.199 0 .362.064.49.192a.664.664 0 0 1 .191.49zm2.728 9.546V6.136a3.28 3.28 0 0 0-1.002-2.407 3.283 3.283 0 0 0-2.407-1.002H6.136a3.28 3.28 0 0 0-2.407 1.002 3.283 3.283 0 0 0-1.002 2.407v17.728c0 .937.334 1.74 1.002 2.407a3.283 3.283 0 0 0 2.407 1.002h17.728a3.28 3.28 0 0 0 2.407-1.002 3.283 3.283 0 0 0 1.002-2.407zM30 6.136v17.728c0 1.69-.6 3.135-1.8 4.336-1.2 1.2-2.646 1.8-4.336 1.8H6.136c-1.69 0-3.135-.6-4.336-1.8C.6 27 0 25.554 0 23.864V6.136C0 4.446.6 3.001 1.8 1.8 3 .6 4.446 0 6.136 0h17.728c1.69 0 3.135.6 4.336 1.8C29.4 3 30 4.446 30 6.136z" fill-rule="evenodd"/>
</symbol>
<symbol id="square-plus" viewBox="0 0 30 30"><path d="M24.545 14.318v1.364a.664.664 0 0 1-.191.49.664.664 0 0 1-.49.192h-7.5v7.5a.664.664 0 0 1-.192.49.664.664 0 0 1-.49.191h-1.364a.664.664 0 0 1-.49-.191.664.664 0 0 1-.192-.49v-7.5h-7.5a.664.664 0 0 1-.49-.192.664.664 0 0 1-.191-.49v-1.364c0-.199.063-.362.191-.49a.664.664 0 0 1 .49-.192h7.5v-7.5c0-.199.064-.362.192-.49a.664.664 0 0 1 .49-.191h1.364c.199 0 .362.063.49.191a.664.664 0 0 1 .192.49v7.5h7.5c.199 0 .362.064.49.192a.664.664 0 0 1 .191.49zm2.728 9.546V6.136a3.28 3.28 0 0 0-1.002-2.407 3.283 3.283 0 0 0-2.407-1.002H6.136a3.28 3.28 0 0 0-2.407 1.002 3.283 3.283 0 0 0-1.002 2.407v17.728c0 .937.334 1.74 1.002 2.407a3.283 3.283 0 0 0 2.407 1.002h17.728a3.28 3.28 0 0 0 2.407-1.002 3.283 3.283 0 0 0 1.002-2.407zM30 6.136v17.728c0 1.69-.6 3.135-1.8 4.336-1.2 1.2-2.646 1.8-4.336 1.8H6.136c-1.69 0-3.135-.6-4.336-1.8C.6 27 0 25.554 0 23.864V6.136C0 4.446.6 3.001 1.8 1.8 3 .6 4.446 0 6.136 0h17.728c1.69 0 3.135.6 4.336 1.8C29.4 3 30 4.446 30 6.136z" fill-rule="evenodd"/>
</symbol>
<symbol id="square" viewBox="0 0 30 30"><path d="M2 2h26v26H2z" fill-rule="evenodd"/>
</symbol>
<symbol id="starred" viewBox="0 0 30 30"><path d="M29 12.076c0 .24-.146.502-.438.786l-6.108 5.8 1.447 8.191c.012.077.017.186.017.328 0 .546-.23.819-.69.819-.213 0-.437-.066-.673-.197L15 23.937l-7.555 3.866c-.247.131-.471.197-.673.197-.236 0-.413-.08-.53-.238a.947.947 0 0 1-.177-.581c0-.066.011-.175.034-.328l1.447-8.191-6.125-5.8c-.28-.295-.421-.557-.421-.786 0-.405.314-.656.942-.754l8.447-1.196 3.786-7.454C14.39 2.224 14.663 2 15 2c.337 0 .611.224.825.672l3.786 7.454 8.447 1.196c.628.098.942.35.942.754z" fill-rule="evenodd"/>
</symbol>
<symbol id="switch-off" viewBox="0 0 30 30"><path d="M16.75 15.5c0-.92-.185-1.8-.554-2.636a6.843 6.843 0 0 0-1.497-2.172 7.07 7.07 0 0 0-2.235-1.454A6.991 6.991 0 0 0 9.75 8.7c-.948 0-1.853.18-2.714.538a7.07 7.07 0 0 0-2.235 1.454 6.843 6.843 0 0 0-1.497 2.172A6.461 6.461 0 0 0 2.75 15.5c0 .92.185 1.8.554 2.636a6.85 6.85 0 0 0 1.497 2.172 7.07 7.07 0 0 0 2.235 1.454 6.991 6.991 0 0 0 2.714.538c.948 0 1.853-.18 2.714-.538a7.07 7.07 0 0 0 2.235-1.454 6.843 6.843 0 0 0 1.497-2.172c.37-.836.554-1.715.554-2.636zm10.5 0c0-.92-.185-1.8-.554-2.636a6.843 6.843 0 0 0-1.497-2.172 7.07 7.07 0 0 0-2.235-1.454A6.991 6.991 0 0 0 20.25 8.7h-5.277a8.775 8.775 0 0 1 2.577 2.975 7.999 7.999 0 0 1 .95 3.825 7.999 7.999 0 0 1-.95 3.825 8.775 8.775 0 0 1-2.577 2.975h5.277c.948 0 1.853-.18 2.714-.538a7.07 7.07 0 0 0 2.235-1.454 6.843 6.843 0 0 0 1.497-2.172c.37-.836.554-1.715.554-2.636zm1.75 0a8.06 8.06 0 0 1-.697 3.3 8.573 8.573 0 0 1-1.866 2.71c-.78.757-1.71 1.361-2.79 1.813A8.72 8.72 0 0 1 20.25 24H9.75a8.72 8.72 0 0 1-3.397-.677c-1.08-.452-2.01-1.056-2.79-1.813a8.573 8.573 0 0 1-1.866-2.71A8.06 8.06 0 0 1 1 15.5a8.06 8.06 0 0 1 .697-3.3 8.573 8.573 0 0 1 1.866-2.71c.78-.757 1.71-1.361 2.79-1.813A8.72 8.72 0 0 1 9.75 7h10.5a8.72 8.72 0 0 1 3.397.677c1.08.452 2.01 1.056 2.79 1.813a8.573 8.573 0 0 1 1.866 2.71A8.06 8.06 0 0 1 29 15.5z" fill-rule="evenodd"/>
</symbol>
<symbol id="switch-on" viewBox="0 0 30 30"><path d="M1 15.5a8.06 8.06 0 0 1 .697-3.3 8.573 8.573 0 0 1 1.866-2.71c.78-.757 1.71-1.361 2.79-1.813A8.72 8.72 0 0 1 9.75 7h10.5a8.72 8.72 0 0 1 3.397.677c1.08.452 2.01 1.056 2.79 1.813a8.573 8.573 0 0 1 1.866 2.71A8.06 8.06 0 0 1 29 15.5a8.06 8.06 0 0 1-.697 3.3 8.573 8.573 0 0 1-1.866 2.71c-.78.757-1.71 1.361-2.79 1.813A8.72 8.72 0 0 1 20.25 24H9.75a8.72 8.72 0 0 1-3.397-.677c-1.08-.452-2.01-1.056-2.79-1.813a8.573 8.573 0 0 1-1.866-2.71A8.06 8.06 0 0 1 1 15.5zm19.25 6.8c.948 0 1.853-.18 2.714-.538a7.07 7.07 0 0 0 2.235-1.454 6.843 6.843 0 0 0 1.497-2.172c.37-.836.554-1.715.554-2.636 0-.92-.185-1.8-.554-2.636a6.843 6.843 0 0 0-1.497-2.172 7.07 7.07 0 0 0-2.235-1.454A6.991 6.991 0 0 0 20.25 8.7c-.948 0-1.853.18-2.714.538a7.07 7.07 0 0 0-2.235 1.454 6.843 6.843 0 0 0-1.497 2.172 6.461 6.461 0 0 0-.554 2.636c0 .92.185 1.8.554 2.636a6.85 6.85 0 0 0 1.497 2.172 7.07 7.07 0 0 0 2.235 1.454 6.991 6.991 0 0 0 2.714.538z" fill-rule="evenodd"/>
</symbol>
<symbol id="table-view" viewBox="0 0 30 30"><path d="M9.23 25.045V21.5a.583.583 0 0 0-.161-.425.555.555 0 0 0-.415-.166h-5.77a.555.555 0 0 0-.414.166.583.583 0 0 0-.162.425v3.545c0 .173.054.314.162.425a.553.553 0 0 0 .415.166h5.769a.555.555 0 0 0 .415-.166.583.583 0 0 0 .162-.425zm0-7.09v-3.546a.583.583 0 0 0-.161-.425.555.555 0 0 0-.415-.166h-5.77a.555.555 0 0 0-.414.166.583.583 0 0 0-.162.425v3.546c0 .172.054.313.162.424a.553.553 0 0 0 .415.166h5.769a.555.555 0 0 0 .415-.166.583.583 0 0 0 .162-.424zm9.232 7.09V21.5a.583.583 0 0 0-.163-.425.555.555 0 0 0-.414-.166h-5.77a.555.555 0 0 0-.414.166.583.583 0 0 0-.163.425v3.545c0 .173.055.314.163.425a.552.552 0 0 0 .414.166h5.77a.555.555 0 0 0 .414-.166.583.583 0 0 0 .163-.425zM9.23 10.864V7.318a.583.583 0 0 0-.162-.425.555.555 0 0 0-.415-.166h-5.77a.555.555 0 0 0-.414.166.583.583 0 0 0-.162.425v3.546a.58.58 0 0 0 .162.424.554.554 0 0 0 .415.167h5.769a.555.555 0 0 0 .415-.167.583.583 0 0 0 .162-.424zm9.23 7.09V14.41a.583.583 0 0 0-.162-.425.555.555 0 0 0-.414-.166h-5.77a.555.555 0 0 0-.414.166.583.583 0 0 0-.163.425v3.546c0 .172.055.313.163.424a.552.552 0 0 0 .414.166h5.77a.555.555 0 0 0 .414-.166.583.583 0 0 0 .163-.424zm9.231 7.091V21.5a.583.583 0 0 0-.162-.425.555.555 0 0 0-.415-.166h-5.769a.555.555 0 0 0-.415.166.583.583 0 0 0-.162.425v3.545c0 .173.054.314.162.425a.556.556 0 0 0 .415.166h5.77a.555.555 0 0 0 .414-.166.583.583 0 0 0 .162-.425zm-9.23-14.181V7.318a.583.583 0 0 0-.163-.425.555.555 0 0 0-.414-.166h-5.77a.555.555 0 0 0-.414.166.583.583 0 0 0-.163.425v3.546c0 .172.055.314.163.424a.553.553 0 0 0 .414.167h5.77a.555.555 0 0 0 .414-.167.583.583 0 0 0 .163-.424zm9.23 7.09V14.41a.583.583 0 0 0-.162-.425.555.555 0 0 0-.415-.166h-5.769a.555.555 0 0 0-.415.166.583.583 0 0 0-.162.425v3.546c0 .172.054.313.162.424a.556.556 0 0 0 .415.166h5.77a.555.555 0 0 0 .414-.166.583.583 0 0 0 .162-.424zm0-7.09V7.318a.583.583 0 0 0-.162-.425.555.555 0 0 0-.415-.166h-5.769a.555.555 0 0 0-.415.166.583.583 0 0 0-.162.425v3.546a.58.58 0 0 0 .162.424.557.557 0 0 0 .415.167h5.77a.555.555 0 0 0 .414-.167.583.583 0 0 0 .162-.424zM30 4.954v20.091a2.88 2.88 0 0 1-.847 2.087c-.565.579-1.244.868-2.038.868H2.885c-.794 0-1.473-.29-2.038-.868A2.88 2.88 0 0 1 0 25.045V4.955c0-.813.282-1.509.847-2.087C1.412 2.289 2.091 2 2.885 2h24.23c.794 0 1.473.29 2.038.868A2.88 2.88 0 0 1 30 4.955z" fill-rule="evenodd"/>
</symbol>
<symbol id="tag" viewBox="0 0 30 30"><path d="M9.688 7.492c0-.607-.214-1.124-.643-1.553a2.116 2.116 0 0 0-1.553-.644c-.607 0-1.124.215-1.553.644a2.116 2.116 0 0 0-.644 1.553c0 .606.215 1.124.644 1.553.429.429.946.643 1.553.643.606 0 1.124-.214 1.553-.643.429-.43.643-.947.643-1.553zM28 17.377c0 .606-.212 1.121-.635 1.544l-8.426 8.444a2.198 2.198 0 0 1-1.562.635 2.102 2.102 0 0 1-1.545-.635L3.562 15.077c-.435-.423-.804-1-1.107-1.733C2.152 12.612 2 11.942 2 11.336v-7.14c0-.594.217-1.11.652-1.544.435-.435.95-.652 1.545-.652h7.139c.606 0 1.276.152 2.008.455.732.303 1.316.672 1.75 1.107l12.271 12.253A2.2 2.2 0 0 1 28 17.377z" fill-rule="evenodd"/>
</symbol>
<symbol id="talk" viewBox="0 0 30 30"><path d="M11.786 5.182c-1.708 0-3.304.295-4.788.886-1.485.59-2.665 1.392-3.541 2.403-.876 1.011-1.314 2.097-1.314 3.256 0 .931.296 1.829.887 2.693.592.863 1.423 1.613 2.495 2.25l1.623.954-.585 1.432c.379-.228.725-.45 1.037-.665l.737-.529.887.17c.87.16 1.725.24 2.562.24 1.707 0 3.303-.296 4.788-.887 1.484-.59 2.664-1.392 3.54-2.403.877-1.011 1.315-2.096 1.315-3.255 0-1.16-.438-2.245-1.315-3.256-.876-1.011-2.056-1.812-3.54-2.403-1.485-.59-3.08-.886-4.788-.886zm0-2.182c2.131 0 4.104.39 5.918 1.168 1.813.778 3.245 1.837 4.294 3.178 1.049 1.341 1.573 2.801 1.573 4.38 0 1.58-.524 3.04-1.573 4.38-1.05 1.342-2.48 2.401-4.294 3.18-1.814.778-3.787 1.167-5.918 1.167-.96 0-1.942-.09-2.947-.273a13.965 13.965 0 0 1-4.654 2.182c-.402.102-.881.193-1.44.273h-.05a.518.518 0 0 1-.343-.137.566.566 0 0 1-.192-.357.354.354 0 0 1-.017-.111c0-.04.003-.077.008-.111a.366.366 0 0 1 .034-.102l.042-.086a.77.77 0 0 1 .058-.093.723.723 0 0 1 .067-.085 1.66 1.66 0 0 0 .075-.086 11.836 11.836 0 0 1 .452-.503c.201-.215.346-.383.436-.502.089-.12.215-.284.376-.495.162-.21.302-.429.419-.656.117-.227.232-.477.343-.75-1.384-.818-2.472-1.823-3.264-3.017C.396 14.351 0 13.08 0 11.727c0-1.58.525-3.04 1.574-4.38 1.049-1.342 2.48-2.401 4.294-3.18C7.68 3.39 9.654 3 11.786 3zm13.76 19.925c.112.272.227.522.344.75.117.227.257.445.419.656.161.21.287.375.376.494.09.12.235.287.436.503a11.836 11.836 0 0 1 .452.503c.033.04.058.068.075.085a.678.678 0 0 1 .067.085.77.77 0 0 1 .058.094c.012.022.026.05.042.085a.366.366 0 0 1 .034.102.687.687 0 0 1 .008.111c0 .04-.005.077-.017.11a.634.634 0 0 1-.217.376.499.499 0 0 1-.369.12 13.82 13.82 0 0 1-1.44-.274 13.965 13.965 0 0 1-4.653-2.181 16.526 16.526 0 0 1-2.947.272c-3.024 0-5.658-.75-7.901-2.25.647.046 1.138.069 1.473.069 1.797 0 3.52-.256 5.173-.767 1.651-.511 3.125-1.244 4.42-2.199 1.394-1.045 2.466-2.25 3.214-3.613a8.872 8.872 0 0 0 1.121-4.33c0-.874-.128-1.738-.385-2.59 1.44.807 2.578 1.818 3.415 3.034.837 1.216 1.256 2.522 1.256 3.92 0 1.363-.396 2.639-1.189 3.826-.792 1.188-1.88 2.19-3.264 3.009z" fill-rule="evenodd"/>
</symbol>
<symbol id="target" viewBox="0 0 30 30"><path d="M20 15c0 1.38-.488 2.559-1.465 3.535C17.56 19.512 16.38 20 15 20c-1.38 0-2.559-.488-3.535-1.465C10.488 17.56 10 16.38 10 15c0-1.38.488-2.559 1.465-3.535C12.44 10.488 13.62 10 15 10c1.38 0 2.559.488 3.535 1.465C19.512 12.44 20 13.62 20 15zm2.5 0c0-2.07-.732-3.838-2.197-5.303C18.838 8.232 17.07 7.5 15 7.5s-3.838.732-5.303 2.197C8.232 11.162 7.5 12.93 7.5 15s.732 3.838 2.197 5.303C11.162 21.768 12.93 22.5 15 22.5s3.838-.732 5.303-2.197C21.768 18.838 22.5 17.07 22.5 15zm2.5 0c0 2.76-.977 5.117-2.93 7.07C20.117 24.023 17.76 25 15 25c-2.76 0-5.117-.977-7.07-2.93C5.977 20.117 5 17.76 5 15c0-2.76.977-5.117 2.93-7.07C9.883 5.977 12.24 5 15 5c2.76 0 5.117.977 7.07 2.93C24.023 9.883 25 12.24 25 15zm2.5 0c0-1.693-.332-3.31-.996-4.854-.664-1.542-1.553-2.87-2.666-3.984-1.113-1.113-2.442-2.002-3.984-2.666A12.15 12.15 0 0 0 15 2.5c-1.693 0-3.31.332-4.854.996-1.542.664-2.87 1.553-3.984 2.666C5.05 7.275 4.16 8.604 3.496 10.146A12.15 12.15 0 0 0 2.5 15c0 1.693.332 3.31.996 4.854.664 1.542 1.553 2.87 2.666 3.984 1.113 1.113 2.442 2.002 3.984 2.666A12.15 12.15 0 0 0 15 27.5c1.693 0 3.31-.332 4.854-.996 1.542-.664 2.87-1.553 3.984-2.666 1.113-1.113 2.002-2.442 2.666-3.984A12.15 12.15 0 0 0 27.5 15zm2.5 0c0 2.721-.67 5.231-2.012 7.53a14.933 14.933 0 0 1-5.459 5.458C20.231 29.33 17.721 30 15 30s-5.231-.67-7.53-2.012a14.933 14.933 0 0 1-5.458-5.459C.67 20.231 0 17.721 0 15s.67-5.231 2.012-7.53A14.933 14.933 0 0 1 7.47 2.013C9.769.67 12.279 0 15 0s5.231.67 7.53 2.012a14.933 14.933 0 0 1 5.458 5.459C29.33 9.769 30 12.279 30 15z" fill-rule="evenodd"/>
</symbol>
<symbol id="triangle-down" viewBox="0 0 30 30"><path d="M0 2h30L15 28z" fill-rule="evenodd"/>
</symbol>
<symbol id="triangle-left" viewBox="0 0 30 30"><path d="M23 0v30L4 15z" fill-rule="evenodd"/>
</symbol>
<symbol id="triangle-right" viewBox="0 0 30 30"><path d="M7 30V0l19 15z" fill-rule="evenodd"/>
</symbol>
<symbol id="triangle-up" viewBox="0 0 30 30"><path d="M0 28h30L15 2z" fill-rule="evenodd"/>
</symbol>
<symbol id="unarchive" viewBox="0 0 30 30"><path d="M26.786 7.25v1.071a.518.518 0 0 1-.536.536h-1.607v15.87c0 .927-.262 1.728-.787 2.403s-1.155 1.013-1.892 1.013H8.036c-.737 0-1.367-.327-1.892-.98-.525-.652-.787-1.442-.787-2.368V8.857H3.75a.521.521 0 0 1-.385-.15.521.521 0 0 1-.15-.386V7.25c0-.156.05-.285.15-.385.1-.1.229-.15.385-.15h5.173l1.172-2.796c.167-.413.469-.765.904-1.055.435-.29.876-.435 1.322-.435h5.358c.446 0 .887.145 1.322.435.435.29.737.642.904 1.055l1.172 2.795h5.173a.52.52 0 0 1 .385.151c.1.1.15.229.15.385zm-5.473 8.07c.126-.107.189-.23.187-.369.002-.137-.061-.26-.187-.367l-5.83-4.994a.643.643 0 0 0-.43-.161c-.019 0-.033.017-.051.019-.02-.002-.034-.02-.053-.02a.643.643 0 0 0-.43.162l-5.83 4.994c-.126.108-.189.23-.189.367 0 .139.063.262.189.37l.86.736a.643.643 0 0 0 .43.162c.16 0 .303-.054.43-.162l3.375-2.892v11.743a.47.47 0 0 0 .172.373.646.646 0 0 0 .436.148h1.217c.178 0 .322-.05.436-.148a.47.47 0 0 0 .172-.373V13.165l3.376 2.892a.641.641 0 0 0 .43.162.643.643 0 0 0 .43-.162l.86-.737zM11.25 6.714h7.5l-.804-1.958a.472.472 0 0 0-.284-.185h-5.307a.472.472 0 0 0-.285.185l-.82 1.958z" fill-rule="evenodd"/>
</symbol>
<symbol id="unread" viewBox="0 0 30 30"><path d="M15 3c-1.625 0-3.178.319-4.66.956-1.48.638-2.756 1.49-3.824 2.56-1.07 1.068-1.922 2.343-2.56 3.825A11.664 11.664 0 0 0 3 15c0 1.625.319 3.178.956 4.66.638 1.48 1.49 2.756 2.56 3.824 1.068 1.07 2.343 1.922 3.825 2.56C11.82 26.68 13.375 27 15 27s3.178-.319 4.66-.956c1.48-.638 2.756-1.49 3.824-2.56 1.07-1.068 1.922-2.343 2.56-3.825C26.68 18.18 27 16.625 27 15s-.319-3.178-.956-4.66c-.638-1.48-1.49-2.756-2.56-3.824-1.068-1.07-2.343-1.922-3.825-2.56A11.664 11.664 0 0 0 15 3z" fill-rule="evenodd"/>
</symbol>
<symbol id="unstarred" viewBox="0 0 30 30"><path d="M20.132 17.924l5.15-4.865-7.102-1.016L15 5.784l-3.18 6.259-7.101 1.016 5.149 4.865-1.229 6.898L15 21.562l6.344 3.26-1.212-6.898zM29 12.076c0 .24-.146.502-.438.786l-6.108 5.8 1.447 8.191c.012.077.017.186.017.328 0 .546-.23.819-.69.819-.213 0-.437-.066-.673-.197L15 23.937l-7.555 3.866c-.247.131-.471.197-.673.197-.236 0-.413-.08-.53-.238a.947.947 0 0 1-.177-.581c0-.066.011-.175.034-.328l1.447-8.191-6.125-5.8c-.28-.295-.421-.557-.421-.786 0-.405.314-.656.942-.754l8.447-1.196 3.786-7.454C14.39 2.224 14.663 2 15 2c.337 0 .611.224.825.672l3.786 7.454 8.447 1.196c.628.098.942.35.942.754z" fill-rule="evenodd"/>
</symbol>
<symbol id="work" viewBox="0 0 30 30"><path d="M9.545 21.964v1.072a.51.51 0 0 1-.161.376.529.529 0 0 1-.384.16H7.91a.529.529 0 0 1-.384-.16.51.51 0 0 1-.162-.376v-1.072a.51.51 0 0 1 .162-.376.529.529 0 0 1 .383-.16H9a.53.53 0 0 1 .384.16.51.51 0 0 1 .161.376zm0-4.285v1.071a.51.51 0 0 1-.161.377.529.529 0 0 1-.384.159H7.91a.529.529 0 0 1-.384-.16.51.51 0 0 1-.162-.376v-1.071a.51.51 0 0 1 .162-.377.529.529 0 0 1 .383-.16H9a.53.53 0 0 1 .384.16.51.51 0 0 1 .161.377zm4.364 0v1.071a.51.51 0 0 1-.162.377.529.529 0 0 1-.383.159h-1.091a.529.529 0 0 1-.384-.16.51.51 0 0 1-.162-.376v-1.071a.51.51 0 0 1 .162-.377.529.529 0 0 1 .384-.16h1.09a.53.53 0 0 1 .384.16.51.51 0 0 1 .162.377zm-4.364-4.286v1.071a.51.51 0 0 1-.161.377A.529.529 0 0 1 9 15H7.91a.529.529 0 0 1-.384-.159.51.51 0 0 1-.162-.377v-1.071a.51.51 0 0 1 .162-.377.529.529 0 0 1 .383-.159H9c.148 0 .276.053.384.16a.51.51 0 0 1 .161.376zm13.091 8.571v1.072a.51.51 0 0 1-.162.376.529.529 0 0 1-.383.16H21a.529.529 0 0 1-.384-.16.51.51 0 0 1-.161-.376v-1.072a.51.51 0 0 1 .161-.376.529.529 0 0 1 .384-.16h1.09c.149 0 .276.054.384.16a.51.51 0 0 1 .162.376zm-4.363-4.285v1.071a.51.51 0 0 1-.162.377.529.529 0 0 1-.384.159h-1.09a.529.529 0 0 1-.384-.16.51.51 0 0 1-.162-.376v-1.071a.51.51 0 0 1 .162-.377.529.529 0 0 1 .383-.16h1.091a.53.53 0 0 1 .384.16.51.51 0 0 1 .162.377zm-4.364-4.286v1.071a.51.51 0 0 1-.162.377.529.529 0 0 1-.383.159h-1.091a.529.529 0 0 1-.384-.159.51.51 0 0 1-.162-.377v-1.071a.51.51 0 0 1 .162-.377.529.529 0 0 1 .384-.159h1.09c.148 0 .276.053.384.16a.51.51 0 0 1 .162.376zM9.545 9.107v1.072a.51.51 0 0 1-.161.376.529.529 0 0 1-.384.16H7.91a.529.529 0 0 1-.384-.16.51.51 0 0 1-.162-.376V9.107a.51.51 0 0 1 .162-.377.529.529 0 0 1 .383-.159H9c.148 0 .276.053.384.16a.51.51 0 0 1 .161.376zm13.091 8.572v1.071a.51.51 0 0 1-.162.377.529.529 0 0 1-.383.159H21a.529.529 0 0 1-.384-.16.51.51 0 0 1-.161-.376v-1.071a.51.51 0 0 1 .161-.377.529.529 0 0 1 .384-.16h1.09c.149 0 .276.054.384.16a.51.51 0 0 1 .162.377zm-4.363-4.286v1.071a.51.51 0 0 1-.162.377.529.529 0 0 1-.384.159h-1.09a.529.529 0 0 1-.384-.159.51.51 0 0 1-.162-.377v-1.071a.51.51 0 0 1 .162-.377.529.529 0 0 1 .383-.159h1.091c.148 0 .276.053.384.16a.51.51 0 0 1 .162.376zm-4.364-4.286v1.072a.51.51 0 0 1-.162.376.529.529 0 0 1-.383.16h-1.091a.529.529 0 0 1-.384-.16.51.51 0 0 1-.162-.376V9.107a.51.51 0 0 1 .162-.377.529.529 0 0 1 .384-.159h1.09c.148 0 .276.053.384.16a.51.51 0 0 1 .162.376zM9.545 4.821v1.072a.51.51 0 0 1-.161.377.529.529 0 0 1-.384.159H7.91a.529.529 0 0 1-.384-.16.51.51 0 0 1-.162-.376V4.82a.51.51 0 0 1 .162-.376.529.529 0 0 1 .383-.16H9a.53.53 0 0 1 .384.16.51.51 0 0 1 .161.376zm13.091 8.572v1.071a.51.51 0 0 1-.162.377.529.529 0 0 1-.383.159H21a.529.529 0 0 1-.384-.159.51.51 0 0 1-.161-.377v-1.071a.51.51 0 0 1 .161-.377.529.529 0 0 1 .384-.159h1.09c.149 0 .276.053.384.16a.51.51 0 0 1 .162.376zm-4.363-4.286v1.072a.51.51 0 0 1-.162.376.529.529 0 0 1-.384.16h-1.09a.529.529 0 0 1-.384-.16.51.51 0 0 1-.162-.376V9.107a.51.51 0 0 1 .162-.377.529.529 0 0 1 .383-.159h1.091c.148 0 .276.053.384.16a.51.51 0 0 1 .162.376zm-4.364-4.286v1.072a.51.51 0 0 1-.162.377.529.529 0 0 1-.383.159h-1.091a.529.529 0 0 1-.384-.16.51.51 0 0 1-.162-.376V4.82a.51.51 0 0 1 .162-.376.529.529 0 0 1 .384-.16h1.09a.53.53 0 0 1 .384.16.51.51 0 0 1 .162.376zm8.727 4.286v1.072a.51.51 0 0 1-.162.376.529.529 0 0 1-.383.16H21a.529.529 0 0 1-.384-.16.51.51 0 0 1-.161-.376V9.107a.51.51 0 0 1 .161-.377.529.529 0 0 1 .384-.159h1.09c.149 0 .276.053.384.16a.51.51 0 0 1 .162.376zm-4.363-4.286v1.072a.51.51 0 0 1-.162.377.529.529 0 0 1-.384.159h-1.09a.529.529 0 0 1-.384-.16.51.51 0 0 1-.162-.376V4.82a.51.51 0 0 1 .162-.376.529.529 0 0 1 .383-.16h1.091a.53.53 0 0 1 .384.16.51.51 0 0 1 .162.376zm4.363 0v1.072a.51.51 0 0 1-.162.377.529.529 0 0 1-.383.159H21a.529.529 0 0 1-.384-.16.51.51 0 0 1-.161-.376V4.82a.51.51 0 0 1 .161-.376.529.529 0 0 1 .384-.16h1.09c.149 0 .276.054.384.16a.51.51 0 0 1 .162.376zm-4.363 23.036h6.545V2.143H5.182v25.714h6.545v-3.75a.51.51 0 0 1 .162-.377.529.529 0 0 1 .384-.159h5.454c.148 0 .276.053.384.16a.51.51 0 0 1 .162.376v3.75zM27 1.071V28.93c0 .29-.108.54-.324.753a1.058 1.058 0 0 1-.767.318H4.091c-.296 0-.551-.106-.767-.318A1.02 1.02 0 0 1 3 28.929V1.07c0-.29.108-.54.324-.753A1.06 1.06 0 0 1 4.09 0h21.818c.296 0 .551.106.767.318.216.212.324.463.324.753z" fill-rule="evenodd"/>
</symbol></svg>